<?xml version="1.0" encoding="utf-8"?><svg xmlns="http://www.w3.org/2000/svg" xmlns:xlink="http://www.w3.org/1999/xlink" width="1536" height="721" preserveAspectRatio="xMidYMid" viewBox="0 0 1536 721" style="z-index:1;display:block;background-color:rgb(255, 255, 255);animation-play-state:paused" ><g transform="translate(768,360.5) scale(1,-1) translate(-768,-360.5)" style="animation-play-state:paused" ><defs style="animation-play-state:paused" ><linearGradient id="lg-0.6538991324749089" x1="0" x2="0" y1="0" y2="1" style="animation-play-state:paused" ><stop stop-color="#ff727d" offset="0" style="animation-play-state:paused" ></stop>

  
<stop stop-color="#60e7f3" offset="1" style="animation-play-state:paused" ></stop></linearGradient></defs>


<rect x="0" y="0" width="1536" height="721" fill="url(#lg-0.6538991324749089)" style="animation-play-state:paused" ></rect>
<g transform="translate(1441.019342474762 569.8894176626836) rotate(201.53290292121497) scale(0.7120943425685409)" style="animation-play-state:paused" ><path fill="#ffd391" d="M6.38-8.33C5.84-10.74,5-13.08,3.83-15.26c-0.85-1.58-1.98-4.16-4.16-3.86c-1.93,0.26-3.02,2.91-3.79,4.44 c-0.51,1-0.95,2.03-1.32,3.09c-0.37,1.06-0.47,2.86-1.16,3.72c-0.67,0.83-2.16,0.35-3.08,0.33c-1.36-0.03-2.71,0.04-4.06,0.21 c-1.72,0.22-4.81,0.42-5.85,2.03c-1.25,1.94,0.7,3.8,1.93,5.13c1.68,1.82,3.6,3.27,5.67,4.62c1.14,0.74,1.08,1.25,0.59,2.47 c-0.51,1.28-0.93,2.59-1.25,3.92c-0.44,1.86-1.34,5.14-0.4,6.93c1.16,2.23,3.65,1.11,5.37,0.35c2.37-1.05,4.49-2.47,6.49-4.1 c1.2-0.97,1.67-0.56,2.78,0.35c1.06,0.86,2.17,1.65,3.35,2.35c1.59,0.95,4.49,2.84,6.43,2.36c2.4-0.58,2-3.33,1.8-5.2 c-0.29-2.64-1.16-4.97-1.98-7.47c-0.5-1.54,0.7-1.87,1.83-2.64c1.09-0.73,2.12-1.54,3.09-2.42c1.41-1.28,4.24-3.58,3.84-5.73 c-0.45-2.42-4.05-2.66-6-2.93c-1.34-0.19-2.68-0.26-4.03-0.24C8.93-7.54,6.7-6.89,6.38-8.33z" style="animation-play-state:paused" ></path></g>
<g transform="translate(282.60225154983056 111.51659563446529) rotate(294.02184958354155) scale(0.5213909800457893)" style="animation-play-state:paused" ><path fill="#fffdeb" d="M6.38-8.33C5.84-10.74,5-13.08,3.83-15.26c-0.85-1.58-1.98-4.16-4.16-3.86c-1.93,0.26-3.02,2.91-3.79,4.44 c-0.51,1-0.95,2.03-1.32,3.09c-0.37,1.06-0.47,2.86-1.16,3.72c-0.67,0.83-2.16,0.35-3.08,0.33c-1.36-0.03-2.71,0.04-4.06,0.21 c-1.72,0.22-4.81,0.42-5.85,2.03c-1.25,1.94,0.7,3.8,1.93,5.13c1.68,1.82,3.6,3.27,5.67,4.62c1.14,0.74,1.08,1.25,0.59,2.47 c-0.51,1.28-0.93,2.59-1.25,3.92c-0.44,1.86-1.34,5.14-0.4,6.93c1.16,2.23,3.65,1.11,5.37,0.35c2.37-1.05,4.49-2.47,6.49-4.1 c1.2-0.97,1.67-0.56,2.78,0.35c1.06,0.86,2.17,1.65,3.35,2.35c1.59,0.95,4.49,2.84,6.43,2.36c2.4-0.58,2-3.33,1.8-5.2 c-0.29-2.64-1.16-4.97-1.98-7.47c-0.5-1.54,0.7-1.87,1.83-2.64c1.09-0.73,2.12-1.54,3.09-2.42c1.41-1.28,4.24-3.58,3.84-5.73 c-0.45-2.42-4.05-2.66-6-2.93c-1.34-0.19-2.68-0.26-4.03-0.24C8.93-7.54,6.7-6.89,6.38-8.33z" style="animation-play-state:paused" ></path></g>
<g transform="translate(1336.2116441420371 280.12435313385794) rotate(98.83944577876186) scale(0.6401390562779928)" style="animation-play-state:paused" ><path fill="#ffd391" d="M6.38-8.33C5.84-10.74,5-13.08,3.83-15.26c-0.85-1.58-1.98-4.16-4.16-3.86c-1.93,0.26-3.02,2.91-3.79,4.44 c-0.51,1-0.95,2.03-1.32,3.09c-0.37,1.06-0.47,2.86-1.16,3.72c-0.67,0.83-2.16,0.35-3.08,0.33c-1.36-0.03-2.71,0.04-4.06,0.21 c-1.72,0.22-4.81,0.42-5.85,2.03c-1.25,1.94,0.7,3.8,1.93,5.13c1.68,1.82,3.6,3.27,5.67,4.62c1.14,0.74,1.08,1.25,0.59,2.47 c-0.51,1.28-0.93,2.59-1.25,3.92c-0.44,1.86-1.34,5.14-0.4,6.93c1.16,2.23,3.65,1.11,5.37,0.35c2.37-1.05,4.49-2.47,6.49-4.1 c1.2-0.97,1.67-0.56,2.78,0.35c1.06,0.86,2.17,1.65,3.35,2.35c1.59,0.95,4.49,2.84,6.43,2.36c2.4-0.58,2-3.33,1.8-5.2 c-0.29-2.64-1.16-4.97-1.98-7.47c-0.5-1.54,0.7-1.87,1.83-2.64c1.09-0.73,2.12-1.54,3.09-2.42c1.41-1.28,4.24-3.58,3.84-5.73 c-0.45-2.42-4.05-2.66-6-2.93c-1.34-0.19-2.68-0.26-4.03-0.24C8.93-7.54,6.7-6.89,6.38-8.33z" style="animation-play-state:paused" ></path></g>
<g transform="translate(625.3260754564799 329.41911089046584) rotate(339.95906941334454) scale(0.6810406174619862)" style="animation-play-state:paused" ><path fill="#ffd391" d="M6.38-8.33C5.84-10.74,5-13.08,3.83-15.26c-0.85-1.58-1.98-4.16-4.16-3.86c-1.93,0.26-3.02,2.91-3.79,4.44 c-0.51,1-0.95,2.03-1.32,3.09c-0.37,1.06-0.47,2.86-1.16,3.72c-0.67,0.83-2.16,0.35-3.08,0.33c-1.36-0.03-2.71,0.04-4.06,0.21 c-1.72,0.22-4.81,0.42-5.85,2.03c-1.25,1.94,0.7,3.8,1.93,5.13c1.68,1.82,3.6,3.27,5.67,4.62c1.14,0.74,1.08,1.25,0.59,2.47 c-0.51,1.28-0.93,2.59-1.25,3.92c-0.44,1.86-1.34,5.14-0.4,6.93c1.16,2.23,3.65,1.11,5.37,0.35c2.37-1.05,4.49-2.47,6.49-4.1 c1.2-0.97,1.67-0.56,2.78,0.35c1.06,0.86,2.17,1.65,3.35,2.35c1.59,0.95,4.49,2.84,6.43,2.36c2.4-0.58,2-3.33,1.8-5.2 c-0.29-2.64-1.16-4.97-1.98-7.47c-0.5-1.54,0.7-1.87,1.83-2.64c1.09-0.73,2.12-1.54,3.09-2.42c1.41-1.28,4.24-3.58,3.84-5.73 c-0.45-2.42-4.05-2.66-6-2.93c-1.34-0.19-2.68-0.26-4.03-0.24C8.93-7.54,6.7-6.89,6.38-8.33z" style="animation-play-state:paused" ></path></g>
<g transform="translate(612.3525464757467 6.7360970095505985) rotate(89.69880980650476) scale(0.6863623860638476)" style="animation-play-state:paused" ><path fill="#ffd391" d="M6.38-8.33C5.84-10.74,5-13.08,3.83-15.26c-0.85-1.58-1.98-4.16-4.16-3.86c-1.93,0.26-3.02,2.91-3.79,4.44 c-0.51,1-0.95,2.03-1.32,3.09c-0.37,1.06-0.47,2.86-1.16,3.72c-0.67,0.83-2.16,0.35-3.08,0.33c-1.36-0.03-2.71,0.04-4.06,0.21 c-1.72,0.22-4.81,0.42-5.85,2.03c-1.25,1.94,0.7,3.8,1.93,5.13c1.68,1.82,3.6,3.27,5.67,4.62c1.14,0.74,1.08,1.25,0.59,2.47 c-0.51,1.28-0.93,2.59-1.25,3.92c-0.44,1.86-1.34,5.14-0.4,6.93c1.16,2.23,3.65,1.11,5.37,0.35c2.37-1.05,4.49-2.47,6.49-4.1 c1.2-0.97,1.67-0.56,2.78,0.35c1.06,0.86,2.17,1.65,3.35,2.35c1.59,0.95,4.49,2.84,6.43,2.36c2.4-0.58,2-3.33,1.8-5.2 c-0.29-2.64-1.16-4.97-1.98-7.47c-0.5-1.54,0.7-1.87,1.83-2.64c1.09-0.73,2.12-1.54,3.09-2.42c1.41-1.28,4.24-3.58,3.84-5.73 c-0.45-2.42-4.05-2.66-6-2.93c-1.34-0.19-2.68-0.26-4.03-0.24C8.93-7.54,6.7-6.89,6.38-8.33z" style="animation-play-state:paused" ></path></g>
<g transform="translate(907.5054942195407 192.41097858543648) rotate(239.612686759459) scale(0.31402849523481347)" style="animation-play-state:paused" ><g transform="matrix(0.9901741147041321,-0.13984015583992004,0.13984015583992004,0.9901741147041321,0,0)" style="animation-play-state:paused" ><path fill="#ffd391" d="M6.38-8.33C5.84-10.74,5-13.08,3.83-15.26c-0.85-1.58-1.98-4.16-4.16-3.86c-1.93,0.26-3.02,2.91-3.79,4.44 c-0.51,1-0.95,2.03-1.32,3.09c-0.37,1.06-0.47,2.86-1.16,3.72c-0.67,0.83-2.16,0.35-3.08,0.33c-1.36-0.03-2.71,0.04-4.06,0.21 c-1.72,0.22-4.81,0.42-5.85,2.03c-1.25,1.94,0.7,3.8,1.93,5.13c1.68,1.82,3.6,3.27,5.67,4.62c1.14,0.74,1.08,1.25,0.59,2.47 c-0.51,1.28-0.93,2.59-1.25,3.92c-0.44,1.86-1.34,5.14-0.4,6.93c1.16,2.23,3.65,1.11,5.37,0.35c2.37-1.05,4.49-2.47,6.49-4.1 c1.2-0.97,1.67-0.56,2.78,0.35c1.06,0.86,2.17,1.65,3.35,2.35c1.59,0.95,4.49,2.84,6.43,2.36c2.4-0.58,2-3.33,1.8-5.2 c-0.29-2.64-1.16-4.97-1.98-7.47c-0.5-1.54,0.7-1.87,1.83-2.64c1.09-0.73,2.12-1.54,3.09-2.42c1.41-1.28,4.24-3.58,3.84-5.73 c-0.45-2.42-4.05-2.66-6-2.93c-1.34-0.19-2.68-0.26-4.03-0.24C8.93-7.54,6.7-6.89,6.38-8.33z" style="animation-play-state:paused" ></path></g></g>
<g transform="translate(1249.1828811329385 107.19289667617949) rotate(351.8730768278515) scale(0.2614195349651412)" style="animation-play-state:paused" ><g transform="matrix(0.9926822185516357,-0.12075596302747726,0.12075596302747726,0.9926822185516357,0,0)" style="animation-play-state:paused" ><path fill="#ffd391" d="M6.38-8.33C5.84-10.74,5-13.08,3.83-15.26c-0.85-1.58-1.98-4.16-4.16-3.86c-1.93,0.26-3.02,2.91-3.79,4.44 c-0.51,1-0.95,2.03-1.32,3.09c-0.37,1.06-0.47,2.86-1.16,3.72c-0.67,0.83-2.16,0.35-3.08,0.33c-1.36-0.03-2.71,0.04-4.06,0.21 c-1.72,0.22-4.81,0.42-5.85,2.03c-1.25,1.94,0.7,3.8,1.93,5.13c1.68,1.82,3.6,3.27,5.67,4.62c1.14,0.74,1.08,1.25,0.59,2.47 c-0.51,1.28-0.93,2.59-1.25,3.92c-0.44,1.86-1.34,5.14-0.4,6.93c1.16,2.23,3.65,1.11,5.37,0.35c2.37-1.05,4.49-2.47,6.49-4.1 c1.2-0.97,1.67-0.56,2.78,0.35c1.06,0.86,2.17,1.65,3.35,2.35c1.59,0.95,4.49,2.84,6.43,2.36c2.4-0.58,2-3.33,1.8-5.2 c-0.29-2.64-1.16-4.97-1.98-7.47c-0.5-1.54,0.7-1.87,1.83-2.64c1.09-0.73,2.12-1.54,3.09-2.42c1.41-1.28,4.24-3.58,3.84-5.73 c-0.45-2.42-4.05-2.66-6-2.93c-1.34-0.19-2.68-0.26-4.03-0.24C8.93-7.54,6.7-6.89,6.38-8.33z" style="animation-play-state:paused" ></path></g></g>
<g transform="translate(214.72316154188462 681.3358172747171) rotate(21.504243271558728) scale(0.3318542606794901)" style="animation-play-state:paused" ><g transform="matrix(0.9952059388160706,-0.09780161827802658,0.09780161827802658,0.9952059388160706,0,0)" style="animation-play-state:paused" ><path fill="#fffdeb" d="M6.38-8.33C5.84-10.74,5-13.08,3.83-15.26c-0.85-1.58-1.98-4.16-4.16-3.86c-1.93,0.26-3.02,2.91-3.79,4.44 c-0.51,1-0.95,2.03-1.32,3.09c-0.37,1.06-0.47,2.86-1.16,3.72c-0.67,0.83-2.16,0.35-3.08,0.33c-1.36-0.03-2.71,0.04-4.06,0.21 c-1.72,0.22-4.81,0.42-5.85,2.03c-1.25,1.94,0.7,3.8,1.93,5.13c1.68,1.82,3.6,3.27,5.67,4.62c1.14,0.74,1.08,1.25,0.59,2.47 c-0.51,1.28-0.93,2.59-1.25,3.92c-0.44,1.86-1.34,5.14-0.4,6.93c1.16,2.23,3.65,1.11,5.37,0.35c2.37-1.05,4.49-2.47,6.49-4.1 c1.2-0.97,1.67-0.56,2.78,0.35c1.06,0.86,2.17,1.65,3.35,2.35c1.59,0.95,4.49,2.84,6.43,2.36c2.4-0.58,2-3.33,1.8-5.2 c-0.29-2.64-1.16-4.97-1.98-7.47c-0.5-1.54,0.7-1.87,1.83-2.64c1.09-0.73,2.12-1.54,3.09-2.42c1.41-1.28,4.24-3.58,3.84-5.73 c-0.45-2.42-4.05-2.66-6-2.93c-1.34-0.19-2.68-0.26-4.03-0.24C8.93-7.54,6.7-6.89,6.38-8.33z" style="animation-play-state:paused" ></path></g></g>
<g transform="translate(804.2522315750714 660.1244452111504) rotate(326.0921148072684) scale(0.25048407550738483)" style="animation-play-state:paused" ><g transform="matrix(0.9974397420883179,-0.0715116560459137,0.0715116560459137,0.9974397420883179,0,0)" style="animation-play-state:paused" ><path fill="#ffd391" d="M6.38-8.33C5.84-10.74,5-13.08,3.83-15.26c-0.85-1.58-1.98-4.16-4.16-3.86c-1.93,0.26-3.02,2.91-3.79,4.44 c-0.51,1-0.95,2.03-1.32,3.09c-0.37,1.06-0.47,2.86-1.16,3.72c-0.67,0.83-2.16,0.35-3.08,0.33c-1.36-0.03-2.71,0.04-4.06,0.21 c-1.72,0.22-4.81,0.42-5.85,2.03c-1.25,1.94,0.7,3.8,1.93,5.13c1.68,1.82,3.6,3.27,5.67,4.62c1.14,0.74,1.08,1.25,0.59,2.47 c-0.51,1.28-0.93,2.59-1.25,3.92c-0.44,1.86-1.34,5.14-0.4,6.93c1.16,2.23,3.65,1.11,5.37,0.35c2.37-1.05,4.49-2.47,6.49-4.1 c1.2-0.97,1.67-0.56,2.78,0.35c1.06,0.86,2.17,1.65,3.35,2.35c1.59,0.95,4.49,2.84,6.43,2.36c2.4-0.58,2-3.33,1.8-5.2 c-0.29-2.64-1.16-4.97-1.98-7.47c-0.5-1.54,0.7-1.87,1.83-2.64c1.09-0.73,2.12-1.54,3.09-2.42c1.41-1.28,4.24-3.58,3.84-5.73 c-0.45-2.42-4.05-2.66-6-2.93c-1.34-0.19-2.68-0.26-4.03-0.24C8.93-7.54,6.7-6.89,6.38-8.33z" style="animation-play-state:paused" ></path></g></g>
<g transform="translate(73.40356890427859 44.81770484396523) rotate(110.49431261537528) scale(0.25385046397196226)" style="animation-play-state:paused" ><g transform="matrix(0.9990898966789246,-0.04265456646680832,0.04265456646680832,0.9990898966789246,0,0)" style="animation-play-state:paused" ><path fill="#fffdeb" d="M6.38-8.33C5.84-10.74,5-13.08,3.83-15.26c-0.85-1.58-1.98-4.16-4.16-3.86c-1.93,0.26-3.02,2.91-3.79,4.44 c-0.51,1-0.95,2.03-1.32,3.09c-0.37,1.06-0.47,2.86-1.16,3.72c-0.67,0.83-2.16,0.35-3.08,0.33c-1.36-0.03-2.71,0.04-4.06,0.21 c-1.72,0.22-4.81,0.42-5.85,2.03c-1.25,1.94,0.7,3.8,1.93,5.13c1.68,1.82,3.6,3.27,5.67,4.62c1.14,0.74,1.08,1.25,0.59,2.47 c-0.51,1.28-0.93,2.59-1.25,3.92c-0.44,1.86-1.34,5.14-0.4,6.93c1.16,2.23,3.65,1.11,5.37,0.35c2.37-1.05,4.49-2.47,6.49-4.1 c1.2-0.97,1.67-0.56,2.78,0.35c1.06,0.86,2.17,1.65,3.35,2.35c1.59,0.95,4.49,2.84,6.43,2.36c2.4-0.58,2-3.33,1.8-5.2 c-0.29-2.64-1.16-4.97-1.98-7.47c-0.5-1.54,0.7-1.87,1.83-2.64c1.09-0.73,2.12-1.54,3.09-2.42c1.41-1.28,4.24-3.58,3.84-5.73 c-0.45-2.42-4.05-2.66-6-2.93c-1.34-0.19-2.68-0.26-4.03-0.24C8.93-7.54,6.7-6.89,6.38-8.33z" style="animation-play-state:paused" ></path></g></g>
<g transform="translate(1441.9943188712057 125.0824558914266) rotate(358.58045899751323) scale(0.3405064817901714)" style="animation-play-state:paused" ><g transform="matrix(0.999925434589386,-0.012210058979690075,0.012210058979690075,0.999925434589386,0,0)" style="animation-play-state:paused" ><path fill="#ffd391" d="M6.38-8.33C5.84-10.74,5-13.08,3.83-15.26c-0.85-1.58-1.98-4.16-4.16-3.86c-1.93,0.26-3.02,2.91-3.79,4.44 c-0.51,1-0.95,2.03-1.32,3.09c-0.37,1.06-0.47,2.86-1.16,3.72c-0.67,0.83-2.16,0.35-3.08,0.33c-1.36-0.03-2.71,0.04-4.06,0.21 c-1.72,0.22-4.81,0.42-5.85,2.03c-1.25,1.94,0.7,3.8,1.93,5.13c1.68,1.82,3.6,3.27,5.67,4.62c1.14,0.74,1.08,1.25,0.59,2.47 c-0.51,1.28-0.93,2.59-1.25,3.92c-0.44,1.86-1.34,5.14-0.4,6.93c1.16,2.23,3.65,1.11,5.37,0.35c2.37-1.05,4.49-2.47,6.49-4.1 c1.2-0.97,1.67-0.56,2.78,0.35c1.06,0.86,2.17,1.65,3.35,2.35c1.59,0.95,4.49,2.84,6.43,2.36c2.4-0.58,2-3.33,1.8-5.2 c-0.29-2.64-1.16-4.97-1.98-7.47c-0.5-1.54,0.7-1.87,1.83-2.64c1.09-0.73,2.12-1.54,3.09-2.42c1.41-1.28,4.24-3.58,3.84-5.73 c-0.45-2.42-4.05-2.66-6-2.93c-1.34-0.19-2.68-0.26-4.03-0.24C8.93-7.54,6.7-6.89,6.38-8.33z" style="animation-play-state:paused" ></path></g></g>
<g transform="translate(9.308225403337588 359.8763827473655) rotate(61.34194416377294) scale(0.3453917751697763)" style="animation-play-state:paused" ><g transform="matrix(0.9998251795768738,0.018696999177336693,-0.018696999177336693,0.9998251795768738,0,0)" style="animation-play-state:paused" ><path fill="#fffdeb" d="M6.38-8.33C5.84-10.74,5-13.08,3.83-15.26c-0.85-1.58-1.98-4.16-4.16-3.86c-1.93,0.26-3.02,2.91-3.79,4.44 c-0.51,1-0.95,2.03-1.32,3.09c-0.37,1.06-0.47,2.86-1.16,3.72c-0.67,0.83-2.16,0.35-3.08,0.33c-1.36-0.03-2.71,0.04-4.06,0.21 c-1.72,0.22-4.81,0.42-5.85,2.03c-1.25,1.94,0.7,3.8,1.93,5.13c1.68,1.82,3.6,3.27,5.67,4.62c1.14,0.74,1.08,1.25,0.59,2.47 c-0.51,1.28-0.93,2.59-1.25,3.92c-0.44,1.86-1.34,5.14-0.4,6.93c1.16,2.23,3.65,1.11,5.37,0.35c2.37-1.05,4.49-2.47,6.49-4.1 c1.2-0.97,1.67-0.56,2.78,0.35c1.06,0.86,2.17,1.65,3.35,2.35c1.59,0.95,4.49,2.84,6.43,2.36c2.4-0.58,2-3.33,1.8-5.2 c-0.29-2.64-1.16-4.97-1.98-7.47c-0.5-1.54,0.7-1.87,1.83-2.64c1.09-0.73,2.12-1.54,3.09-2.42c1.41-1.28,4.24-3.58,3.84-5.73 c-0.45-2.42-4.05-2.66-6-2.93c-1.34-0.19-2.68-0.26-4.03-0.24C8.93-7.54,6.7-6.89,6.38-8.33z" style="animation-play-state:paused" ></path></g></g>
<g transform="translate(35.931230540559795 164.42335151047584) rotate(267.3722829995989) scale(0.31037289699395537)" style="animation-play-state:paused" ><g transform="matrix(0.9987267851829529,0.050445690751075745,-0.050445690751075745,0.9987267851829529,0,0)" style="animation-play-state:paused" ><path fill="#ffd391" d="M6.38-8.33C5.84-10.74,5-13.08,3.83-15.26c-0.85-1.58-1.98-4.16-4.16-3.86c-1.93,0.26-3.02,2.91-3.79,4.44 c-0.51,1-0.95,2.03-1.32,3.09c-0.37,1.06-0.47,2.86-1.16,3.72c-0.67,0.83-2.16,0.35-3.08,0.33c-1.36-0.03-2.71,0.04-4.06,0.21 c-1.72,0.22-4.81,0.42-5.85,2.03c-1.25,1.94,0.7,3.8,1.93,5.13c1.68,1.82,3.6,3.27,5.67,4.62c1.14,0.74,1.08,1.25,0.59,2.47 c-0.51,1.28-0.93,2.59-1.25,3.92c-0.44,1.86-1.34,5.14-0.4,6.93c1.16,2.23,3.65,1.11,5.37,0.35c2.37-1.05,4.49-2.47,6.49-4.1 c1.2-0.97,1.67-0.56,2.78,0.35c1.06,0.86,2.17,1.65,3.35,2.35c1.59,0.95,4.49,2.84,6.43,2.36c2.4-0.58,2-3.33,1.8-5.2 c-0.29-2.64-1.16-4.97-1.98-7.47c-0.5-1.54,0.7-1.87,1.83-2.64c1.09-0.73,2.12-1.54,3.09-2.42c1.41-1.28,4.24-3.58,3.84-5.73 c-0.45-2.42-4.05-2.66-6-2.93c-1.34-0.19-2.68-0.26-4.03-0.24C8.93-7.54,6.7-6.89,6.38-8.33z" style="animation-play-state:paused" ></path></g></g>
<g transform="translate(803.5335823055997 153.87544079097978) rotate(153.63657966072765) scale(0.24271772190976004)" style="animation-play-state:paused" ><g transform="matrix(0.9968972206115723,0.07871440798044205,-0.07871440798044205,0.9968972206115723,0,0)" style="animation-play-state:paused" ><path fill="#fffdeb" d="M6.38-8.33C5.84-10.74,5-13.08,3.83-15.26c-0.85-1.58-1.98-4.16-4.16-3.86c-1.93,0.26-3.02,2.91-3.79,4.44 c-0.51,1-0.95,2.03-1.32,3.09c-0.37,1.06-0.47,2.86-1.16,3.72c-0.67,0.83-2.16,0.35-3.08,0.33c-1.36-0.03-2.71,0.04-4.06,0.21 c-1.72,0.22-4.81,0.42-5.85,2.03c-1.25,1.94,0.7,3.8,1.93,5.13c1.68,1.82,3.6,3.27,5.67,4.62c1.14,0.74,1.08,1.25,0.59,2.47 c-0.51,1.28-0.93,2.59-1.25,3.92c-0.44,1.86-1.34,5.14-0.4,6.93c1.16,2.23,3.65,1.11,5.37,0.35c2.37-1.05,4.49-2.47,6.49-4.1 c1.2-0.97,1.67-0.56,2.78,0.35c1.06,0.86,2.17,1.65,3.35,2.35c1.59,0.95,4.49,2.84,6.43,2.36c2.4-0.58,2-3.33,1.8-5.2 c-0.29-2.64-1.16-4.97-1.98-7.47c-0.5-1.54,0.7-1.87,1.83-2.64c1.09-0.73,2.12-1.54,3.09-2.42c1.41-1.28,4.24-3.58,3.84-5.73 c-0.45-2.42-4.05-2.66-6-2.93c-1.34-0.19-2.68-0.26-4.03-0.24C8.93-7.54,6.7-6.89,6.38-8.33z" style="animation-play-state:paused" ></path></g></g>
<g transform="translate(508.64446858553305 523.1068419415288) rotate(146.2172533073902) scale(0.25029773383562137)" style="animation-play-state:paused" ><g transform="matrix(0.99455726146698,0.1041916012763977,-0.1041916012763977,0.99455726146698,0,0)" style="animation-play-state:paused" ><path fill="#fffdeb" d="M6.38-8.33C5.84-10.74,5-13.08,3.83-15.26c-0.85-1.58-1.98-4.16-4.16-3.86c-1.93,0.26-3.02,2.91-3.79,4.44 c-0.51,1-0.95,2.03-1.32,3.09c-0.37,1.06-0.47,2.86-1.16,3.72c-0.67,0.83-2.16,0.35-3.08,0.33c-1.36-0.03-2.71,0.04-4.06,0.21 c-1.72,0.22-4.81,0.42-5.85,2.03c-1.25,1.94,0.7,3.8,1.93,5.13c1.68,1.82,3.6,3.27,5.67,4.62c1.14,0.74,1.08,1.25,0.59,2.47 c-0.51,1.28-0.93,2.59-1.25,3.92c-0.44,1.86-1.34,5.14-0.4,6.93c1.16,2.23,3.65,1.11,5.37,0.35c2.37-1.05,4.49-2.47,6.49-4.1 c1.2-0.97,1.67-0.56,2.78,0.35c1.06,0.86,2.17,1.65,3.35,2.35c1.59,0.95,4.49,2.84,6.43,2.36c2.4-0.58,2-3.33,1.8-5.2 c-0.29-2.64-1.16-4.97-1.98-7.47c-0.5-1.54,0.7-1.87,1.83-2.64c1.09-0.73,2.12-1.54,3.09-2.42c1.41-1.28,4.24-3.58,3.84-5.73 c-0.45-2.42-4.05-2.66-6-2.93c-1.34-0.19-2.68-0.26-4.03-0.24C8.93-7.54,6.7-6.89,6.38-8.33z" style="animation-play-state:paused" ></path></g></g>
<g transform="translate(559.5570540444792 176.34940043318127) rotate(281.4368312173195) scale(0.2752528525183838)" style="animation-play-state:paused" ><g transform="matrix(0.992008626461029,0.1261698454618454,-0.1261698454618454,0.992008626461029,0,0)" style="animation-play-state:paused" ><path fill="#fffdeb" d="M6.38-8.33C5.84-10.74,5-13.08,3.83-15.26c-0.85-1.58-1.98-4.16-4.16-3.86c-1.93,0.26-3.02,2.91-3.79,4.44 c-0.51,1-0.95,2.03-1.32,3.09c-0.37,1.06-0.47,2.86-1.16,3.72c-0.67,0.83-2.16,0.35-3.08,0.33c-1.36-0.03-2.71,0.04-4.06,0.21 c-1.72,0.22-4.81,0.42-5.85,2.03c-1.25,1.94,0.7,3.8,1.93,5.13c1.68,1.82,3.6,3.27,5.67,4.62c1.14,0.74,1.08,1.25,0.59,2.47 c-0.51,1.28-0.93,2.59-1.25,3.92c-0.44,1.86-1.34,5.14-0.4,6.93c1.16,2.23,3.65,1.11,5.37,0.35c2.37-1.05,4.49-2.47,6.49-4.1 c1.2-0.97,1.67-0.56,2.78,0.35c1.06,0.86,2.17,1.65,3.35,2.35c1.59,0.95,4.49,2.84,6.43,2.36c2.4-0.58,2-3.33,1.8-5.2 c-0.29-2.64-1.16-4.97-1.98-7.47c-0.5-1.54,0.7-1.87,1.83-2.64c1.09-0.73,2.12-1.54,3.09-2.42c1.41-1.28,4.24-3.58,3.84-5.73 c-0.45-2.42-4.05-2.66-6-2.93c-1.34-0.19-2.68-0.26-4.03-0.24C8.93-7.54,6.7-6.89,6.38-8.33z" style="animation-play-state:paused" ></path></g></g>
<g transform="translate(1057.0917398291379 10.653565822151922) rotate(336.79098399470547) scale(0.33607911153177)" style="animation-play-state:paused" ><g transform="matrix(0.9895521998405457,0.14417502284049988,-0.14417502284049988,0.9895521998405457,0,0)" style="animation-play-state:paused" ><path fill="#fffdeb" d="M6.38-8.33C5.84-10.74,5-13.08,3.83-15.26c-0.85-1.58-1.98-4.16-4.16-3.86c-1.93,0.26-3.02,2.91-3.79,4.44 c-0.51,1-0.95,2.03-1.32,3.09c-0.37,1.06-0.47,2.86-1.16,3.72c-0.67,0.83-2.16,0.35-3.08,0.33c-1.36-0.03-2.71,0.04-4.06,0.21 c-1.72,0.22-4.81,0.42-5.85,2.03c-1.25,1.94,0.7,3.8,1.93,5.13c1.68,1.82,3.6,3.27,5.67,4.62c1.14,0.74,1.08,1.25,0.59,2.47 c-0.51,1.28-0.93,2.59-1.25,3.92c-0.44,1.86-1.34,5.14-0.4,6.93c1.16,2.23,3.65,1.11,5.37,0.35c2.37-1.05,4.49-2.47,6.49-4.1 c1.2-0.97,1.67-0.56,2.78,0.35c1.06,0.86,2.17,1.65,3.35,2.35c1.59,0.95,4.49,2.84,6.43,2.36c2.4-0.58,2-3.33,1.8-5.2 c-0.29-2.64-1.16-4.97-1.98-7.47c-0.5-1.54,0.7-1.87,1.83-2.64c1.09-0.73,2.12-1.54,3.09-2.42c1.41-1.28,4.24-3.58,3.84-5.73 c-0.45-2.42-4.05-2.66-6-2.93c-1.34-0.19-2.68-0.26-4.03-0.24C8.93-7.54,6.7-6.89,6.38-8.33z" style="animation-play-state:paused" ></path></g></g>
<g transform="translate(1379.7160661062003 381.59091786014403) rotate(81.43782657118635) scale(0.24091810455881746)" style="animation-play-state:paused" ><g transform="matrix(0.98744797706604,0.15794450044631958,-0.15794450044631958,0.98744797706604,0,0)" style="animation-play-state:paused" ><path fill="#fffdeb" d="M6.38-8.33C5.84-10.74,5-13.08,3.83-15.26c-0.85-1.58-1.98-4.16-4.16-3.86c-1.93,0.26-3.02,2.91-3.79,4.44 c-0.51,1-0.95,2.03-1.32,3.09c-0.37,1.06-0.47,2.86-1.16,3.72c-0.67,0.83-2.16,0.35-3.08,0.33c-1.36-0.03-2.71,0.04-4.06,0.21 c-1.72,0.22-4.81,0.42-5.85,2.03c-1.25,1.94,0.7,3.8,1.93,5.13c1.68,1.82,3.6,3.27,5.67,4.62c1.14,0.74,1.08,1.25,0.59,2.47 c-0.51,1.28-0.93,2.59-1.25,3.92c-0.44,1.86-1.34,5.14-0.4,6.93c1.16,2.23,3.65,1.11,5.37,0.35c2.37-1.05,4.49-2.47,6.49-4.1 c1.2-0.97,1.67-0.56,2.78,0.35c1.06,0.86,2.17,1.65,3.35,2.35c1.59,0.95,4.49,2.84,6.43,2.36c2.4-0.58,2-3.33,1.8-5.2 c-0.29-2.64-1.16-4.97-1.98-7.47c-0.5-1.54,0.7-1.87,1.83-2.64c1.09-0.73,2.12-1.54,3.09-2.42c1.41-1.28,4.24-3.58,3.84-5.73 c-0.45-2.42-4.05-2.66-6-2.93c-1.34-0.19-2.68-0.26-4.03-0.24C8.93-7.54,6.7-6.89,6.38-8.33z" style="animation-play-state:paused" ></path></g></g>
<g transform="translate(1451.4789310314754 597.3407213756236) rotate(51.8575496629233) scale(0.2517078545575541)" style="animation-play-state:paused" ><g transform="matrix(0.9848077297210693,-0.1736481785774231,0.1736481785774231,0.9848077297210693,0,0)" style="animation-play-state:paused" ><path fill="#ffd391" d="M6.38-8.33C5.84-10.74,5-13.08,3.83-15.26c-0.85-1.58-1.98-4.16-4.16-3.86c-1.93,0.26-3.02,2.91-3.79,4.44 c-0.51,1-0.95,2.03-1.32,3.09c-0.37,1.06-0.47,2.86-1.16,3.72c-0.67,0.83-2.16,0.35-3.08,0.33c-1.36-0.03-2.71,0.04-4.06,0.21 c-1.72,0.22-4.81,0.42-5.85,2.03c-1.25,1.94,0.7,3.8,1.93,5.13c1.68,1.82,3.6,3.27,5.67,4.62c1.14,0.74,1.08,1.25,0.59,2.47 c-0.51,1.28-0.93,2.59-1.25,3.92c-0.44,1.86-1.34,5.14-0.4,6.93c1.16,2.23,3.65,1.11,5.37,0.35c2.37-1.05,4.49-2.47,6.49-4.1 c1.2-0.97,1.67-0.56,2.78,0.35c1.06,0.86,2.17,1.65,3.35,2.35c1.59,0.95,4.49,2.84,6.43,2.36c2.4-0.58,2-3.33,1.8-5.2 c-0.29-2.64-1.16-4.97-1.98-7.47c-0.5-1.54,0.7-1.87,1.83-2.64c1.09-0.73,2.12-1.54,3.09-2.42c1.41-1.28,4.24-3.58,3.84-5.73 c-0.45-2.42-4.05-2.66-6-2.93c-1.34-0.19-2.68-0.26-4.03-0.24C8.93-7.54,6.7-6.89,6.38-8.33z" style="animation-play-state:paused" ></path></g></g>
<g transform="translate(333.2926644877152 719.4459010755977) rotate(161.92057013724204) scale(0.24005560187663236)" style="animation-play-state:paused" ><g transform="matrix(0.9850033521652222,0.1725352257490158,-0.1725352257490158,0.9850033521652222,0,0)" style="animation-play-state:paused" ><path fill="#fffdeb" d="M6.38-8.33C5.84-10.74,5-13.08,3.83-15.26c-0.85-1.58-1.98-4.16-4.16-3.86c-1.93,0.26-3.02,2.91-3.79,4.44 c-0.51,1-0.95,2.03-1.32,3.09c-0.37,1.06-0.47,2.86-1.16,3.72c-0.67,0.83-2.16,0.35-3.08,0.33c-1.36-0.03-2.71,0.04-4.06,0.21 c-1.72,0.22-4.81,0.42-5.85,2.03c-1.25,1.94,0.7,3.8,1.93,5.13c1.68,1.82,3.6,3.27,5.67,4.62c1.14,0.74,1.08,1.25,0.59,2.47 c-0.51,1.28-0.93,2.59-1.25,3.92c-0.44,1.86-1.34,5.14-0.4,6.93c1.16,2.23,3.65,1.11,5.37,0.35c2.37-1.05,4.49-2.47,6.49-4.1 c1.2-0.97,1.67-0.56,2.78,0.35c1.06,0.86,2.17,1.65,3.35,2.35c1.59,0.95,4.49,2.84,6.43,2.36c2.4-0.58,2-3.33,1.8-5.2 c-0.29-2.64-1.16-4.97-1.98-7.47c-0.5-1.54,0.7-1.87,1.83-2.64c1.09-0.73,2.12-1.54,3.09-2.42c1.41-1.28,4.24-3.58,3.84-5.73 c-0.45-2.42-4.05-2.66-6-2.93c-1.34-0.19-2.68-0.26-4.03-0.24C8.93-7.54,6.7-6.89,6.38-8.33z" style="animation-play-state:paused" ></path></g></g>
<g transform="translate(695.5977249796383 425.566289116273) rotate(54.60646655751097) scale(0.3387114431732751)" style="animation-play-state:paused" ><g transform="matrix(0.9848325848579407,0.17350715398788452,-0.17350715398788452,0.9848325848579407,0,0)" style="animation-play-state:paused" ><path fill="#fffdeb" d="M6.38-8.33C5.84-10.74,5-13.08,3.83-15.26c-0.85-1.58-1.98-4.16-4.16-3.86c-1.93,0.26-3.02,2.91-3.79,4.44 c-0.51,1-0.95,2.03-1.32,3.09c-0.37,1.06-0.47,2.86-1.16,3.72c-0.67,0.83-2.16,0.35-3.08,0.33c-1.36-0.03-2.71,0.04-4.06,0.21 c-1.72,0.22-4.81,0.42-5.85,2.03c-1.25,1.94,0.7,3.8,1.93,5.13c1.68,1.82,3.6,3.27,5.67,4.62c1.14,0.74,1.08,1.25,0.59,2.47 c-0.51,1.28-0.93,2.59-1.25,3.92c-0.44,1.86-1.34,5.14-0.4,6.93c1.16,2.23,3.65,1.11,5.37,0.35c2.37-1.05,4.49-2.47,6.49-4.1 c1.2-0.97,1.67-0.56,2.78,0.35c1.06,0.86,2.17,1.65,3.35,2.35c1.59,0.95,4.49,2.84,6.43,2.36c2.4-0.58,2-3.33,1.8-5.2 c-0.29-2.64-1.16-4.97-1.98-7.47c-0.5-1.54,0.7-1.87,1.83-2.64c1.09-0.73,2.12-1.54,3.09-2.42c1.41-1.28,4.24-3.58,3.84-5.73 c-0.45-2.42-4.05-2.66-6-2.93c-1.34-0.19-2.68-0.26-4.03-0.24C8.93-7.54,6.7-6.89,6.38-8.33z" style="animation-play-state:paused" ></path></g></g>
<g transform="translate(1088.7799482133926 104.71082103218784) rotate(250.73064363247286) scale(0.35759300024139123)" style="animation-play-state:paused" ><g transform="matrix(0.9853827357292175,0.1703549474477768,-0.1703549474477768,0.9853827357292175,0,0)" style="animation-play-state:paused" ><path fill="#fffdeb" d="M6.38-8.33C5.84-10.74,5-13.08,3.83-15.26c-0.85-1.58-1.98-4.16-4.16-3.86c-1.93,0.26-3.02,2.91-3.79,4.44 c-0.51,1-0.95,2.03-1.32,3.09c-0.37,1.06-0.47,2.86-1.16,3.72c-0.67,0.83-2.16,0.35-3.08,0.33c-1.36-0.03-2.71,0.04-4.06,0.21 c-1.72,0.22-4.81,0.42-5.85,2.03c-1.25,1.94,0.7,3.8,1.93,5.13c1.68,1.82,3.6,3.27,5.67,4.62c1.14,0.74,1.08,1.25,0.59,2.47 c-0.51,1.28-0.93,2.59-1.25,3.92c-0.44,1.86-1.34,5.14-0.4,6.93c1.16,2.23,3.65,1.11,5.37,0.35c2.37-1.05,4.49-2.47,6.49-4.1 c1.2-0.97,1.67-0.56,2.78,0.35c1.06,0.86,2.17,1.65,3.35,2.35c1.59,0.95,4.49,2.84,6.43,2.36c2.4-0.58,2-3.33,1.8-5.2 c-0.29-2.64-1.16-4.97-1.98-7.47c-0.5-1.54,0.7-1.87,1.83-2.64c1.09-0.73,2.12-1.54,3.09-2.42c1.41-1.28,4.24-3.58,3.84-5.73 c-0.45-2.42-4.05-2.66-6-2.93c-1.34-0.19-2.68-0.26-4.03-0.24C8.93-7.54,6.7-6.89,6.38-8.33z" style="animation-play-state:paused" ></path></g></g>
<g transform="translate(407.6237412189432 519.9752239627074) rotate(123.0735684577179) scale(0.3164279878466807)" style="animation-play-state:paused" ><g transform="matrix(0.9866331815719604,0.1629568636417389,-0.1629568636417389,0.9866331815719604,0,0)" style="animation-play-state:paused" ><path fill="#ffd391" d="M6.38-8.33C5.84-10.74,5-13.08,3.83-15.26c-0.85-1.58-1.98-4.16-4.16-3.86c-1.93,0.26-3.02,2.91-3.79,4.44 c-0.51,1-0.95,2.03-1.32,3.09c-0.37,1.06-0.47,2.86-1.16,3.72c-0.67,0.83-2.16,0.35-3.08,0.33c-1.36-0.03-2.71,0.04-4.06,0.21 c-1.72,0.22-4.81,0.42-5.85,2.03c-1.25,1.94,0.7,3.8,1.93,5.13c1.68,1.82,3.6,3.27,5.67,4.62c1.14,0.74,1.08,1.25,0.59,2.47 c-0.51,1.28-0.93,2.59-1.25,3.92c-0.44,1.86-1.34,5.14-0.4,6.93c1.16,2.23,3.65,1.11,5.37,0.35c2.37-1.05,4.49-2.47,6.49-4.1 c1.2-0.97,1.67-0.56,2.78,0.35c1.06,0.86,2.17,1.65,3.35,2.35c1.59,0.95,4.49,2.84,6.43,2.36c2.4-0.58,2-3.33,1.8-5.2 c-0.29-2.64-1.16-4.97-1.98-7.47c-0.5-1.54,0.7-1.87,1.83-2.64c1.09-0.73,2.12-1.54,3.09-2.42c1.41-1.28,4.24-3.58,3.84-5.73 c-0.45-2.42-4.05-2.66-6-2.93c-1.34-0.19-2.68-0.26-4.03-0.24C8.93-7.54,6.7-6.89,6.38-8.33z" style="animation-play-state:paused" ></path></g></g>
<g transform="translate(538.6366465936169 687.5741840841443) rotate(113.77811397272967) scale(0.29377656802191365)" style="animation-play-state:paused" ><g transform="matrix(0.9884979128837585,0.1512344777584076,-0.1512344777584076,0.9884979128837585,0,0)" style="animation-play-state:paused" ><path fill="#fffdeb" d="M6.38-8.33C5.84-10.74,5-13.08,3.83-15.26c-0.85-1.58-1.98-4.16-4.16-3.86c-1.93,0.26-3.02,2.91-3.79,4.44 c-0.51,1-0.95,2.03-1.32,3.09c-0.37,1.06-0.47,2.86-1.16,3.72c-0.67,0.83-2.16,0.35-3.08,0.33c-1.36-0.03-2.71,0.04-4.06,0.21 c-1.72,0.22-4.81,0.42-5.85,2.03c-1.25,1.94,0.7,3.8,1.93,5.13c1.68,1.82,3.6,3.27,5.67,4.62c1.14,0.74,1.08,1.25,0.59,2.47 c-0.51,1.28-0.93,2.59-1.25,3.92c-0.44,1.86-1.34,5.14-0.4,6.93c1.16,2.23,3.65,1.11,5.37,0.35c2.37-1.05,4.49-2.47,6.49-4.1 c1.2-0.97,1.67-0.56,2.78,0.35c1.06,0.86,2.17,1.65,3.35,2.35c1.59,0.95,4.49,2.84,6.43,2.36c2.4-0.58,2-3.33,1.8-5.2 c-0.29-2.64-1.16-4.97-1.98-7.47c-0.5-1.54,0.7-1.87,1.83-2.64c1.09-0.73,2.12-1.54,3.09-2.42c1.41-1.28,4.24-3.58,3.84-5.73 c-0.45-2.42-4.05-2.66-6-2.93c-1.34-0.19-2.68-0.26-4.03-0.24C8.93-7.54,6.7-6.89,6.38-8.33z" style="animation-play-state:paused" ></path></g></g>
<g transform="translate(1474.2901576287443 259.576117252928) rotate(137.77502344626492) scale(0.28348086805453065)" style="animation-play-state:paused" ><g transform="matrix(0.9908163547515869,0.13521447777748108,-0.13521447777748108,0.9908163547515869,0,0)" style="animation-play-state:paused" ><path fill="#ffd391" d="M6.38-8.33C5.84-10.74,5-13.08,3.83-15.26c-0.85-1.58-1.98-4.16-4.16-3.86c-1.93,0.26-3.02,2.91-3.79,4.44 c-0.51,1-0.95,2.03-1.32,3.09c-0.37,1.06-0.47,2.86-1.16,3.72c-0.67,0.83-2.16,0.35-3.08,0.33c-1.36-0.03-2.71,0.04-4.06,0.21 c-1.72,0.22-4.81,0.42-5.85,2.03c-1.25,1.94,0.7,3.8,1.93,5.13c1.68,1.82,3.6,3.27,5.67,4.62c1.14,0.74,1.08,1.25,0.59,2.47 c-0.51,1.28-0.93,2.59-1.25,3.92c-0.44,1.86-1.34,5.14-0.4,6.93c1.16,2.23,3.65,1.11,5.37,0.35c2.37-1.05,4.49-2.47,6.49-4.1 c1.2-0.97,1.67-0.56,2.78,0.35c1.06,0.86,2.17,1.65,3.35,2.35c1.59,0.95,4.49,2.84,6.43,2.36c2.4-0.58,2-3.33,1.8-5.2 c-0.29-2.64-1.16-4.97-1.98-7.47c-0.5-1.54,0.7-1.87,1.83-2.64c1.09-0.73,2.12-1.54,3.09-2.42c1.41-1.28,4.24-3.58,3.84-5.73 c-0.45-2.42-4.05-2.66-6-2.93c-1.34-0.19-2.68-0.26-4.03-0.24C8.93-7.54,6.7-6.89,6.38-8.33z" style="animation-play-state:paused" ></path></g></g>
<g transform="translate(1390.1294244685064 681.3684404029075) rotate(88.11241269238465) scale(0.25045769811950624)" style="animation-play-state:paused" ><g transform="matrix(0.9933570623397827,0.11507286131381989,-0.11507286131381989,0.9933570623397827,0,0)" style="animation-play-state:paused" ><path fill="#fffdeb" d="M6.38-8.33C5.84-10.74,5-13.08,3.83-15.26c-0.85-1.58-1.98-4.16-4.16-3.86c-1.93,0.26-3.02,2.91-3.79,4.44 c-0.51,1-0.95,2.03-1.32,3.09c-0.37,1.06-0.47,2.86-1.16,3.72c-0.67,0.83-2.16,0.35-3.08,0.33c-1.36-0.03-2.71,0.04-4.06,0.21 c-1.72,0.22-4.81,0.42-5.85,2.03c-1.25,1.94,0.7,3.8,1.93,5.13c1.68,1.82,3.6,3.27,5.67,4.62c1.14,0.74,1.08,1.25,0.59,2.47 c-0.51,1.28-0.93,2.59-1.25,3.92c-0.44,1.86-1.34,5.14-0.4,6.93c1.16,2.23,3.65,1.11,5.37,0.35c2.37-1.05,4.49-2.47,6.49-4.1 c1.2-0.97,1.67-0.56,2.78,0.35c1.06,0.86,2.17,1.65,3.35,2.35c1.59,0.95,4.49,2.84,6.43,2.36c2.4-0.58,2-3.33,1.8-5.2 c-0.29-2.64-1.16-4.97-1.98-7.47c-0.5-1.54,0.7-1.87,1.83-2.64c1.09-0.73,2.12-1.54,3.09-2.42c1.41-1.28,4.24-3.58,3.84-5.73 c-0.45-2.42-4.05-2.66-6-2.93c-1.34-0.19-2.68-0.26-4.03-0.24C8.93-7.54,6.7-6.89,6.38-8.33z" style="animation-play-state:paused" ></path></g></g>
<g transform="translate(1514.1452863257139 512.3936165971029) rotate(126.26252767479129) scale(0.2770674786610327)" style="animation-play-state:paused" ><g transform="matrix(0.995834469795227,0.09117935597896576,-0.09117935597896576,0.995834469795227,0,0)" style="animation-play-state:paused" ><path fill="#ffd391" d="M6.38-8.33C5.84-10.74,5-13.08,3.83-15.26c-0.85-1.58-1.98-4.16-4.16-3.86c-1.93,0.26-3.02,2.91-3.79,4.44 c-0.51,1-0.95,2.03-1.32,3.09c-0.37,1.06-0.47,2.86-1.16,3.72c-0.67,0.83-2.16,0.35-3.08,0.33c-1.36-0.03-2.71,0.04-4.06,0.21 c-1.72,0.22-4.81,0.42-5.85,2.03c-1.25,1.94,0.7,3.8,1.93,5.13c1.68,1.82,3.6,3.27,5.67,4.62c1.14,0.74,1.08,1.25,0.59,2.47 c-0.51,1.28-0.93,2.59-1.25,3.92c-0.44,1.86-1.34,5.14-0.4,6.93c1.16,2.23,3.65,1.11,5.37,0.35c2.37-1.05,4.49-2.47,6.49-4.1 c1.2-0.97,1.67-0.56,2.78,0.35c1.06,0.86,2.17,1.65,3.35,2.35c1.59,0.95,4.49,2.84,6.43,2.36c2.4-0.58,2-3.33,1.8-5.2 c-0.29-2.64-1.16-4.97-1.98-7.47c-0.5-1.54,0.7-1.87,1.83-2.64c1.09-0.73,2.12-1.54,3.09-2.42c1.41-1.28,4.24-3.58,3.84-5.73 c-0.45-2.42-4.05-2.66-6-2.93c-1.34-0.19-2.68-0.26-4.03-0.24C8.93-7.54,6.7-6.89,6.38-8.33z" style="animation-play-state:paused" ></path></g></g>
<g transform="translate(1112.0465059037144 174.70329656267324) rotate(127.34600082579696) scale(0.24321942098872945)" style="animation-play-state:paused" ><g transform="matrix(0.9979415535926819,0.06412994861602783,-0.06412994861602783,0.9979415535926819,0,0)" style="animation-play-state:paused" ><path fill="#fffdeb" d="M6.38-8.33C5.84-10.74,5-13.08,3.83-15.26c-0.85-1.58-1.98-4.16-4.16-3.86c-1.93,0.26-3.02,2.91-3.79,4.44 c-0.51,1-0.95,2.03-1.32,3.09c-0.37,1.06-0.47,2.86-1.16,3.72c-0.67,0.83-2.16,0.35-3.08,0.33c-1.36-0.03-2.71,0.04-4.06,0.21 c-1.72,0.22-4.81,0.42-5.85,2.03c-1.25,1.94,0.7,3.8,1.93,5.13c1.68,1.82,3.6,3.27,5.67,4.62c1.14,0.74,1.08,1.25,0.59,2.47 c-0.51,1.28-0.93,2.59-1.25,3.92c-0.44,1.86-1.34,5.14-0.4,6.93c1.16,2.23,3.65,1.11,5.37,0.35c2.37-1.05,4.49-2.47,6.49-4.1 c1.2-0.97,1.67-0.56,2.78,0.35c1.06,0.86,2.17,1.65,3.35,2.35c1.59,0.95,4.49,2.84,6.43,2.36c2.4-0.58,2-3.33,1.8-5.2 c-0.29-2.64-1.16-4.97-1.98-7.47c-0.5-1.54,0.7-1.87,1.83-2.64c1.09-0.73,2.12-1.54,3.09-2.42c1.41-1.28,4.24-3.58,3.84-5.73 c-0.45-2.42-4.05-2.66-6-2.93c-1.34-0.19-2.68-0.26-4.03-0.24C8.93-7.54,6.7-6.89,6.38-8.33z" style="animation-play-state:paused" ></path></g></g>
<g transform="translate(1312.9877991195399 476.0421639744003) rotate(302.6165804473544) scale(0.29059346059750674)" style="animation-play-state:paused" ><g transform="matrix(0.9993959665298462,0.034752700477838516,-0.034752700477838516,0.9993959665298462,0,0)" style="animation-play-state:paused" ><path fill="#fffdeb" d="M6.38-8.33C5.84-10.74,5-13.08,3.83-15.26c-0.85-1.58-1.98-4.16-4.16-3.86c-1.93,0.26-3.02,2.91-3.79,4.44 c-0.51,1-0.95,2.03-1.32,3.09c-0.37,1.06-0.47,2.86-1.16,3.72c-0.67,0.83-2.16,0.35-3.08,0.33c-1.36-0.03-2.71,0.04-4.06,0.21 c-1.72,0.22-4.81,0.42-5.85,2.03c-1.25,1.94,0.7,3.8,1.93,5.13c1.68,1.82,3.6,3.27,5.67,4.62c1.14,0.74,1.08,1.25,0.59,2.47 c-0.51,1.28-0.93,2.59-1.25,3.92c-0.44,1.86-1.34,5.14-0.4,6.93c1.16,2.23,3.65,1.11,5.37,0.35c2.37-1.05,4.49-2.47,6.49-4.1 c1.2-0.97,1.67-0.56,2.78,0.35c1.06,0.86,2.17,1.65,3.35,2.35c1.59,0.95,4.49,2.84,6.43,2.36c2.4-0.58,2-3.33,1.8-5.2 c-0.29-2.64-1.16-4.97-1.98-7.47c-0.5-1.54,0.7-1.87,1.83-2.64c1.09-0.73,2.12-1.54,3.09-2.42c1.41-1.28,4.24-3.58,3.84-5.73 c-0.45-2.42-4.05-2.66-6-2.93c-1.34-0.19-2.68-0.26-4.03-0.24C8.93-7.54,6.7-6.89,6.38-8.33z" style="animation-play-state:paused" ></path></g></g>
<g transform="translate(438.02371839008606 160.6755285114613) rotate(126.61732161735274) scale(0.26322176471582037)" style="animation-play-state:paused" ><g transform="matrix(0.9999917149543762,0.0040736147202551365,-0.0040736147202551365,0.9999917149543762,0,0)" style="animation-play-state:paused" ><path fill="#ffd391" d="M6.38-8.33C5.84-10.74,5-13.08,3.83-15.26c-0.85-1.58-1.98-4.16-4.16-3.86c-1.93,0.26-3.02,2.91-3.79,4.44 c-0.51,1-0.95,2.03-1.32,3.09c-0.37,1.06-0.47,2.86-1.16,3.72c-0.67,0.83-2.16,0.35-3.08,0.33c-1.36-0.03-2.71,0.04-4.06,0.21 c-1.72,0.22-4.81,0.42-5.85,2.03c-1.25,1.94,0.7,3.8,1.93,5.13c1.68,1.82,3.6,3.27,5.67,4.62c1.14,0.74,1.08,1.25,0.59,2.47 c-0.51,1.28-0.93,2.59-1.25,3.92c-0.44,1.86-1.34,5.14-0.4,6.93c1.16,2.23,3.65,1.11,5.37,0.35c2.37-1.05,4.49-2.47,6.49-4.1 c1.2-0.97,1.67-0.56,2.78,0.35c1.06,0.86,2.17,1.65,3.35,2.35c1.59,0.95,4.49,2.84,6.43,2.36c2.4-0.58,2-3.33,1.8-5.2 c-0.29-2.64-1.16-4.97-1.98-7.47c-0.5-1.54,0.7-1.87,1.83-2.64c1.09-0.73,2.12-1.54,3.09-2.42c1.41-1.28,4.24-3.58,3.84-5.73 c-0.45-2.42-4.05-2.66-6-2.93c-1.34-0.19-2.68-0.26-4.03-0.24C8.93-7.54,6.7-6.89,6.38-8.33z" style="animation-play-state:paused" ></path></g></g>
<g transform="translate(1298.5142736709772 508.3317726336515) rotate(236.67358182187817) scale(0.2541057825259206)" style="animation-play-state:paused" ><g transform="matrix(0.9996418952941895,-0.026760008186101913,0.026760008186101913,0.9996418952941895,0,0)" style="animation-play-state:paused" ><path fill="#ffd391" d="M6.38-8.33C5.84-10.74,5-13.08,3.83-15.26c-0.85-1.58-1.98-4.16-4.16-3.86c-1.93,0.26-3.02,2.91-3.79,4.44 c-0.51,1-0.95,2.03-1.32,3.09c-0.37,1.06-0.47,2.86-1.16,3.72c-0.67,0.83-2.16,0.35-3.08,0.33c-1.36-0.03-2.71,0.04-4.06,0.21 c-1.72,0.22-4.81,0.42-5.85,2.03c-1.25,1.94,0.7,3.8,1.93,5.13c1.68,1.82,3.6,3.27,5.67,4.62c1.14,0.74,1.08,1.25,0.59,2.47 c-0.51,1.28-0.93,2.59-1.25,3.92c-0.44,1.86-1.34,5.14-0.4,6.93c1.16,2.23,3.65,1.11,5.37,0.35c2.37-1.05,4.49-2.47,6.49-4.1 c1.2-0.97,1.67-0.56,2.78,0.35c1.06,0.86,2.17,1.65,3.35,2.35c1.59,0.95,4.49,2.84,6.43,2.36c2.4-0.58,2-3.33,1.8-5.2 c-0.29-2.64-1.16-4.97-1.98-7.47c-0.5-1.54,0.7-1.87,1.83-2.64c1.09-0.73,2.12-1.54,3.09-2.42c1.41-1.28,4.24-3.58,3.84-5.73 c-0.45-2.42-4.05-2.66-6-2.93c-1.34-0.19-2.68-0.26-4.03-0.24C8.93-7.54,6.7-6.89,6.38-8.33z" style="animation-play-state:paused" ></path></g></g>
<g transform="translate(1487.84193889308 325.7156195361853) rotate(276.5224412238266) scale(0.2551341645178245)" style="animation-play-state:paused" ><g transform="matrix(0.998397707939148,-0.05658594146370888,0.05658594146370888,0.998397707939148,0,0)" style="animation-play-state:paused" ><path fill="#ffd391" d="M6.38-8.33C5.84-10.74,5-13.08,3.83-15.26c-0.85-1.58-1.98-4.16-4.16-3.86c-1.93,0.26-3.02,2.91-3.79,4.44 c-0.51,1-0.95,2.03-1.32,3.09c-0.37,1.06-0.47,2.86-1.16,3.72c-0.67,0.83-2.16,0.35-3.08,0.33c-1.36-0.03-2.71,0.04-4.06,0.21 c-1.72,0.22-4.81,0.42-5.85,2.03c-1.25,1.94,0.7,3.8,1.93,5.13c1.68,1.82,3.6,3.27,5.67,4.62c1.14,0.74,1.08,1.25,0.59,2.47 c-0.51,1.28-0.93,2.59-1.25,3.92c-0.44,1.86-1.34,5.14-0.4,6.93c1.16,2.23,3.65,1.11,5.37,0.35c2.37-1.05,4.49-2.47,6.49-4.1 c1.2-0.97,1.67-0.56,2.78,0.35c1.06,0.86,2.17,1.65,3.35,2.35c1.59,0.95,4.49,2.84,6.43,2.36c2.4-0.58,2-3.33,1.8-5.2 c-0.29-2.64-1.16-4.97-1.98-7.47c-0.5-1.54,0.7-1.87,1.83-2.64c1.09-0.73,2.12-1.54,3.09-2.42c1.41-1.28,4.24-3.58,3.84-5.73 c-0.45-2.42-4.05-2.66-6-2.93c-1.34-0.19-2.68-0.26-4.03-0.24C8.93-7.54,6.7-6.89,6.38-8.33z" style="animation-play-state:paused" ></path></g></g>
<g transform="translate(1345.0437245106425 196.57991746609036) rotate(99.69786096635595) scale(0.3123163631273127)" style="animation-play-state:paused" ><g transform="matrix(0.9964372515678406,-0.0843372642993927,0.0843372642993927,0.9964372515678406,0,0)" style="animation-play-state:paused" ><path fill="#fffdeb" d="M6.38-8.33C5.84-10.74,5-13.08,3.83-15.26c-0.85-1.58-1.98-4.16-4.16-3.86c-1.93,0.26-3.02,2.91-3.79,4.44 c-0.51,1-0.95,2.03-1.32,3.09c-0.37,1.06-0.47,2.86-1.16,3.72c-0.67,0.83-2.16,0.35-3.08,0.33c-1.36-0.03-2.71,0.04-4.06,0.21 c-1.72,0.22-4.81,0.42-5.85,2.03c-1.25,1.94,0.7,3.8,1.93,5.13c1.68,1.82,3.6,3.27,5.67,4.62c1.14,0.74,1.08,1.25,0.59,2.47 c-0.51,1.28-0.93,2.59-1.25,3.92c-0.44,1.86-1.34,5.14-0.4,6.93c1.16,2.23,3.65,1.11,5.37,0.35c2.37-1.05,4.49-2.47,6.49-4.1 c1.2-0.97,1.67-0.56,2.78,0.35c1.06,0.86,2.17,1.65,3.35,2.35c1.59,0.95,4.49,2.84,6.43,2.36c2.4-0.58,2-3.33,1.8-5.2 c-0.29-2.64-1.16-4.97-1.98-7.47c-0.5-1.54,0.7-1.87,1.83-2.64c1.09-0.73,2.12-1.54,3.09-2.42c1.41-1.28,4.24-3.58,3.84-5.73 c-0.45-2.42-4.05-2.66-6-2.93c-1.34-0.19-2.68-0.26-4.03-0.24C8.93-7.54,6.7-6.89,6.38-8.33z" style="animation-play-state:paused" ></path></g></g>
<g transform="translate(1274.5123095810225 369.6240734135048) rotate(357.83078308095327) scale(0.3309668009611698)" style="animation-play-state:paused" ><g transform="matrix(0.993894100189209,-0.110337994992733,0.110337994992733,0.993894100189209,0,0)" style="animation-play-state:paused" ><path fill="#ffd391" d="M6.38-8.33C5.84-10.74,5-13.08,3.83-15.26c-0.85-1.58-1.98-4.16-4.16-3.86c-1.93,0.26-3.02,2.91-3.79,4.44 c-0.51,1-0.95,2.03-1.32,3.09c-0.37,1.06-0.47,2.86-1.16,3.72c-0.67,0.83-2.16,0.35-3.08,0.33c-1.36-0.03-2.71,0.04-4.06,0.21 c-1.72,0.22-4.81,0.42-5.85,2.03c-1.25,1.94,0.7,3.8,1.93,5.13c1.68,1.82,3.6,3.27,5.67,4.62c1.14,0.74,1.08,1.25,0.59,2.47 c-0.51,1.28-0.93,2.59-1.25,3.92c-0.44,1.86-1.34,5.14-0.4,6.93c1.16,2.23,3.65,1.11,5.37,0.35c2.37-1.05,4.49-2.47,6.49-4.1 c1.2-0.97,1.67-0.56,2.78,0.35c1.06,0.86,2.17,1.65,3.35,2.35c1.59,0.95,4.49,2.84,6.43,2.36c2.4-0.58,2-3.33,1.8-5.2 c-0.29-2.64-1.16-4.97-1.98-7.47c-0.5-1.54,0.7-1.87,1.83-2.64c1.09-0.73,2.12-1.54,3.09-2.42c1.41-1.28,4.24-3.58,3.84-5.73 c-0.45-2.42-4.05-2.66-6-2.93c-1.34-0.19-2.68-0.26-4.03-0.24C8.93-7.54,6.7-6.89,6.38-8.33z" style="animation-play-state:paused" ></path></g></g>
<g transform="translate(1036.7950318161916 541.0644648334904) rotate(112.54410319914888) scale(0.2676396529273091)" style="animation-play-state:paused" ><g transform="matrix(0.9913417100906372,-0.1313074380159378,0.1313074380159378,0.9913417100906372,0,0)" style="animation-play-state:paused" ><path fill="#fffdeb" d="M6.38-8.33C5.84-10.74,5-13.08,3.83-15.26c-0.85-1.58-1.98-4.16-4.16-3.86c-1.93,0.26-3.02,2.91-3.79,4.44 c-0.51,1-0.95,2.03-1.32,3.09c-0.37,1.06-0.47,2.86-1.16,3.72c-0.67,0.83-2.16,0.35-3.08,0.33c-1.36-0.03-2.71,0.04-4.06,0.21 c-1.72,0.22-4.81,0.42-5.85,2.03c-1.25,1.94,0.7,3.8,1.93,5.13c1.68,1.82,3.6,3.27,5.67,4.62c1.14,0.74,1.08,1.25,0.59,2.47 c-0.51,1.28-0.93,2.59-1.25,3.92c-0.44,1.86-1.34,5.14-0.4,6.93c1.16,2.23,3.65,1.11,5.37,0.35c2.37-1.05,4.49-2.47,6.49-4.1 c1.2-0.97,1.67-0.56,2.78,0.35c1.06,0.86,2.17,1.65,3.35,2.35c1.59,0.95,4.49,2.84,6.43,2.36c2.4-0.58,2-3.33,1.8-5.2 c-0.29-2.64-1.16-4.97-1.98-7.47c-0.5-1.54,0.7-1.87,1.83-2.64c1.09-0.73,2.12-1.54,3.09-2.42c1.41-1.28,4.24-3.58,3.84-5.73 c-0.45-2.42-4.05-2.66-6-2.93c-1.34-0.19-2.68-0.26-4.03-0.24C8.93-7.54,6.7-6.89,6.38-8.33z" style="animation-play-state:paused" ></path></g></g>
<g transform="translate(432.3882429320423 58.9856573021612) rotate(92.11693313239755) scale(0.3133030849015113)" style="animation-play-state:paused" ><g transform="matrix(0.9889550805091858,-0.1482156366109848,0.1482156366109848,0.9889550805091858,0,0)" style="animation-play-state:paused" ><path fill="#ffd391" d="M6.38-8.33C5.84-10.74,5-13.08,3.83-15.26c-0.85-1.58-1.98-4.16-4.16-3.86c-1.93,0.26-3.02,2.91-3.79,4.44 c-0.51,1-0.95,2.03-1.32,3.09c-0.37,1.06-0.47,2.86-1.16,3.72c-0.67,0.83-2.16,0.35-3.08,0.33c-1.36-0.03-2.71,0.04-4.06,0.21 c-1.72,0.22-4.81,0.42-5.85,2.03c-1.25,1.94,0.7,3.8,1.93,5.13c1.68,1.82,3.6,3.27,5.67,4.62c1.14,0.74,1.08,1.25,0.59,2.47 c-0.51,1.28-0.93,2.59-1.25,3.92c-0.44,1.86-1.34,5.14-0.4,6.93c1.16,2.23,3.65,1.11,5.37,0.35c2.37-1.05,4.49-2.47,6.49-4.1 c1.2-0.97,1.67-0.56,2.78,0.35c1.06,0.86,2.17,1.65,3.35,2.35c1.59,0.95,4.49,2.84,6.43,2.36c2.4-0.58,2-3.33,1.8-5.2 c-0.29-2.64-1.16-4.97-1.98-7.47c-0.5-1.54,0.7-1.87,1.83-2.64c1.09-0.73,2.12-1.54,3.09-2.42c1.41-1.28,4.24-3.58,3.84-5.73 c-0.45-2.42-4.05-2.66-6-2.93c-1.34-0.19-2.68-0.26-4.03-0.24C8.93-7.54,6.7-6.89,6.38-8.33z" style="animation-play-state:paused" ></path></g></g>
<g transform="translate(1005.3625105720375 146.14883708231358) rotate(124.20640760826078) scale(0.34166262466143865)" style="animation-play-state:paused" ><g transform="matrix(0.9869790077209473,-0.16084930300712585,0.16084930300712585,0.9869790077209473,0,0)" style="animation-play-state:paused" ><path fill="#fffdeb" d="M6.38-8.33C5.84-10.74,5-13.08,3.83-15.26c-0.85-1.58-1.98-4.16-4.16-3.86c-1.93,0.26-3.02,2.91-3.79,4.44 c-0.51,1-0.95,2.03-1.32,3.09c-0.37,1.06-0.47,2.86-1.16,3.72c-0.67,0.83-2.16,0.35-3.08,0.33c-1.36-0.03-2.71,0.04-4.06,0.21 c-1.72,0.22-4.81,0.42-5.85,2.03c-1.25,1.94,0.7,3.8,1.93,5.13c1.68,1.82,3.6,3.27,5.67,4.62c1.14,0.74,1.08,1.25,0.59,2.47 c-0.51,1.28-0.93,2.59-1.25,3.92c-0.44,1.86-1.34,5.14-0.4,6.93c1.16,2.23,3.65,1.11,5.37,0.35c2.37-1.05,4.49-2.47,6.49-4.1 c1.2-0.97,1.67-0.56,2.78,0.35c1.06,0.86,2.17,1.65,3.35,2.35c1.59,0.95,4.49,2.84,6.43,2.36c2.4-0.58,2-3.33,1.8-5.2 c-0.29-2.64-1.16-4.97-1.98-7.47c-0.5-1.54,0.7-1.87,1.83-2.64c1.09-0.73,2.12-1.54,3.09-2.42c1.41-1.28,4.24-3.58,3.84-5.73 c-0.45-2.42-4.05-2.66-6-2.93c-1.34-0.19-2.68-0.26-4.03-0.24C8.93-7.54,6.7-6.89,6.38-8.33z" style="animation-play-state:paused" ></path></g></g>
<g transform="translate(458.49959463601147 230.4167695215098) rotate(47.36044231590426) scale(0.28542737846956573)" style="animation-play-state:paused" ><g transform="matrix(0.9855896234512329,-0.16915415227413177,0.16915415227413177,0.9855896234512329,0,0)" style="animation-play-state:paused" ><path fill="#ffd391" d="M6.38-8.33C5.84-10.74,5-13.08,3.83-15.26c-0.85-1.58-1.98-4.16-4.16-3.86c-1.93,0.26-3.02,2.91-3.79,4.44 c-0.51,1-0.95,2.03-1.32,3.09c-0.37,1.06-0.47,2.86-1.16,3.72c-0.67,0.83-2.16,0.35-3.08,0.33c-1.36-0.03-2.71,0.04-4.06,0.21 c-1.72,0.22-4.81,0.42-5.85,2.03c-1.25,1.94,0.7,3.8,1.93,5.13c1.68,1.82,3.6,3.27,5.67,4.62c1.14,0.74,1.08,1.25,0.59,2.47 c-0.51,1.28-0.93,2.59-1.25,3.92c-0.44,1.86-1.34,5.14-0.4,6.93c1.16,2.23,3.65,1.11,5.37,0.35c2.37-1.05,4.49-2.47,6.49-4.1 c1.2-0.97,1.67-0.56,2.78,0.35c1.06,0.86,2.17,1.65,3.35,2.35c1.59,0.95,4.49,2.84,6.43,2.36c2.4-0.58,2-3.33,1.8-5.2 c-0.29-2.64-1.16-4.97-1.98-7.47c-0.5-1.54,0.7-1.87,1.83-2.64c1.09-0.73,2.12-1.54,3.09-2.42c1.41-1.28,4.24-3.58,3.84-5.73 c-0.45-2.42-4.05-2.66-6-2.93c-1.34-0.19-2.68-0.26-4.03-0.24C8.93-7.54,6.7-6.89,6.38-8.33z" style="animation-play-state:paused" ></path></g></g>
<g transform="translate(229.99850693510052 173.6032446541456) rotate(196.02673927891976) scale(0.25102223809909846)" style="animation-play-state:paused" ><g transform="matrix(0.9848884344100952,-0.1731898933649063,0.1731898933649063,0.9848884344100952,0,0)" style="animation-play-state:paused" ><path fill="#ffd391" d="M6.38-8.33C5.84-10.74,5-13.08,3.83-15.26c-0.85-1.58-1.98-4.16-4.16-3.86c-1.93,0.26-3.02,2.91-3.79,4.44 c-0.51,1-0.95,2.03-1.32,3.09c-0.37,1.06-0.47,2.86-1.16,3.72c-0.67,0.83-2.16,0.35-3.08,0.33c-1.36-0.03-2.71,0.04-4.06,0.21 c-1.72,0.22-4.81,0.42-5.85,2.03c-1.25,1.94,0.7,3.8,1.93,5.13c1.68,1.82,3.6,3.27,5.67,4.62c1.14,0.74,1.08,1.25,0.59,2.47 c-0.51,1.28-0.93,2.59-1.25,3.92c-0.44,1.86-1.34,5.14-0.4,6.93c1.16,2.23,3.65,1.11,5.37,0.35c2.37-1.05,4.49-2.47,6.49-4.1 c1.2-0.97,1.67-0.56,2.78,0.35c1.06,0.86,2.17,1.65,3.35,2.35c1.59,0.95,4.49,2.84,6.43,2.36c2.4-0.58,2-3.33,1.8-5.2 c-0.29-2.64-1.16-4.97-1.98-7.47c-0.5-1.54,0.7-1.87,1.83-2.64c1.09-0.73,2.12-1.54,3.09-2.42c1.41-1.28,4.24-3.58,3.84-5.73 c-0.45-2.42-4.05-2.66-6-2.93c-1.34-0.19-2.68-0.26-4.03-0.24C8.93-7.54,6.7-6.89,6.38-8.33z" style="animation-play-state:paused" ></path></g></g>
<g transform="translate(1493.417870788179 682.9705267728467) rotate(289.6181429682879) scale(0.3492081760720597)" style="animation-play-state:paused" ><g transform="matrix(0.9849074482917786,-0.17308199405670166,0.17308199405670166,0.9849074482917786,0,0)" style="animation-play-state:paused" ><path fill="#fffdeb" d="M6.38-8.33C5.84-10.74,5-13.08,3.83-15.26c-0.85-1.58-1.98-4.16-4.16-3.86c-1.93,0.26-3.02,2.91-3.79,4.44 c-0.51,1-0.95,2.03-1.32,3.09c-0.37,1.06-0.47,2.86-1.16,3.72c-0.67,0.83-2.16,0.35-3.08,0.33c-1.36-0.03-2.71,0.04-4.06,0.21 c-1.72,0.22-4.81,0.42-5.85,2.03c-1.25,1.94,0.7,3.8,1.93,5.13c1.68,1.82,3.6,3.27,5.67,4.62c1.14,0.74,1.08,1.25,0.59,2.47 c-0.51,1.28-0.93,2.59-1.25,3.92c-0.44,1.86-1.34,5.14-0.4,6.93c1.16,2.23,3.65,1.11,5.37,0.35c2.37-1.05,4.49-2.47,6.49-4.1 c1.2-0.97,1.67-0.56,2.78,0.35c1.06,0.86,2.17,1.65,3.35,2.35c1.59,0.95,4.49,2.84,6.43,2.36c2.4-0.58,2-3.33,1.8-5.2 c-0.29-2.64-1.16-4.97-1.98-7.47c-0.5-1.54,0.7-1.87,1.83-2.64c1.09-0.73,2.12-1.54,3.09-2.42c1.41-1.28,4.24-3.58,3.84-5.73 c-0.45-2.42-4.05-2.66-6-2.93c-1.34-0.19-2.68-0.26-4.03-0.24C8.93-7.54,6.7-6.89,6.38-8.33z" style="animation-play-state:paused" ></path></g></g>
<g transform="translate(1193.4770097178073 708.7425639425927) rotate(178.79977667619804) scale(0.35045467039985206)" style="animation-play-state:paused" ><g transform="matrix(0.98564612865448,-0.16882438957691193,0.16882438957691193,0.98564612865448,0,0)" style="animation-play-state:paused" ><path fill="#fffdeb" d="M6.38-8.33C5.84-10.74,5-13.08,3.83-15.26c-0.85-1.58-1.98-4.16-4.16-3.86c-1.93,0.26-3.02,2.91-3.79,4.44 c-0.51,1-0.95,2.03-1.32,3.09c-0.37,1.06-0.47,2.86-1.16,3.72c-0.67,0.83-2.16,0.35-3.08,0.33c-1.36-0.03-2.71,0.04-4.06,0.21 c-1.72,0.22-4.81,0.42-5.85,2.03c-1.25,1.94,0.7,3.8,1.93,5.13c1.68,1.82,3.6,3.27,5.67,4.62c1.14,0.74,1.08,1.25,0.59,2.47 c-0.51,1.28-0.93,2.59-1.25,3.92c-0.44,1.86-1.34,5.14-0.4,6.93c1.16,2.23,3.65,1.11,5.37,0.35c2.37-1.05,4.49-2.47,6.49-4.1 c1.2-0.97,1.67-0.56,2.78,0.35c1.06,0.86,2.17,1.65,3.35,2.35c1.59,0.95,4.49,2.84,6.43,2.36c2.4-0.58,2-3.33,1.8-5.2 c-0.29-2.64-1.16-4.97-1.98-7.47c-0.5-1.54,0.7-1.87,1.83-2.64c1.09-0.73,2.12-1.54,3.09-2.42c1.41-1.28,4.24-3.58,3.84-5.73 c-0.45-2.42-4.05-2.66-6-2.93c-1.34-0.19-2.68-0.26-4.03-0.24C8.93-7.54,6.7-6.89,6.38-8.33z" style="animation-play-state:paused" ></path></g></g>
<g transform="translate(1268.4756701392012 695.6133358907646) rotate(194.13976306400596) scale(0.29868400160487557)" opacity="1" style="animation-play-state:paused" ><circle cx="0" cy="0" r="5" fill="#fffdeb" style="animation-play-state:paused" ></circle></g>
<g transform="translate(144.75713899527688 6.766968004818031) rotate(324.43700834300574) scale(0.25799524336099516)" opacity="1" style="animation-play-state:paused" ><circle cx="0" cy="0" r="5" fill="#ffd391" style="animation-play-state:paused" ></circle></g>
<g transform="translate(920.334032213674 317.4050617183348) rotate(326.5244238945935) scale(0.2860076327550205)" opacity="1" style="animation-play-state:paused" ><circle cx="0" cy="0" r="5" fill="#fffdeb" style="animation-play-state:paused" ></circle></g>
<g transform="translate(37.46888100016827 3.4356002618516817) rotate(339.0536308851216) scale(0.24836827359625957)" opacity="1" style="animation-play-state:paused" ><circle cx="0" cy="0" r="5" fill="#fffdeb" style="animation-play-state:paused" ></circle></g>
<g transform="translate(863.2579507875013 72.7350273062106) rotate(152.07011766018994) scale(0.29608848958391976)" opacity="1" style="animation-play-state:paused" ><circle cx="0" cy="0" r="5" fill="#fffdeb" style="animation-play-state:paused" ></circle></g>
<g transform="translate(1093.6552218911634 435.11770281046006) rotate(128.61085387633443) scale(0.2686535450736501)" opacity="0.688139" style="opacity:0.688139;animation-play-state:paused" ><circle cx="0" cy="0" r="5" fill="#ffd391" style="animation-play-state:paused" ></circle></g>
<g transform="translate(72.67638494296222 435.56237953774354) rotate(188.88562334155915) scale(0.3098707239372255)" opacity="0.688139" style="opacity:0.688139;animation-play-state:paused" ><circle cx="0" cy="0" r="5" fill="#ffd391" style="animation-play-state:paused" ></circle></g>
<g transform="translate(1511.9296129767447 7.753678980961479) rotate(155.47155805899052) scale(0.24402626701280739)" opacity="0.688139" style="opacity:0.688139;animation-play-state:paused" ><circle cx="0" cy="0" r="5" fill="#fffdeb" style="animation-play-state:paused" ></circle></g>
<g transform="translate(346.5880542359701 439.87936561608285) rotate(73.11927126996677) scale(0.27120702392195795)" opacity="0.688139" style="opacity:0.688139;animation-play-state:paused" ><circle cx="0" cy="0" r="5" fill="#fffdeb" style="animation-play-state:paused" ></circle></g>
<g transform="translate(154.94173604450805 282.9013086964103) rotate(272.7400222941286) scale(0.3034056381822177)" opacity="0.688139" style="opacity:0.688139;animation-play-state:paused" ><circle cx="0" cy="0" r="5" fill="#fffdeb" style="animation-play-state:paused" ></circle></g>
<g transform="translate(30.844832062956698 58.52325206143832) rotate(62.84755915173089) scale(0.3248503444624851)" opacity="0.688139" style="opacity:0.688139;animation-play-state:paused" ><circle cx="0" cy="0" r="5" fill="#ffd391" style="animation-play-state:paused" ></circle></g>
<g transform="translate(894.9689322398642 413.80304193257894) rotate(255.23386301356103) scale(0.24034658076973225)" opacity="0.688139" style="opacity:0.688139;animation-play-state:paused" ><circle cx="0" cy="0" r="5" fill="#ffd391" style="animation-play-state:paused" ></circle></g>
<g transform="translate(1512.852766505721 87.61577591688855) rotate(145.92413966700627) scale(0.27011342737876215)" opacity="0.688139" style="opacity:0.688139;animation-play-state:paused" ><circle cx="0" cy="0" r="5" fill="#ffd391" style="animation-play-state:paused" ></circle></g>
<g transform="translate(270.8917937297579 646.6938502769092) rotate(35.84886318655699) scale(0.322847046947314)" opacity="0.688139" style="opacity:0.688139;animation-play-state:paused" ><circle cx="0" cy="0" r="5" fill="#fffdeb" style="animation-play-state:paused" ></circle></g>
<g transform="translate(506.0136621254951 696.0714152869494) rotate(150.99074335915336) scale(0.2668471640753488)" opacity="0.688139" style="opacity:0.688139;animation-play-state:paused" ><circle cx="0" cy="0" r="5" fill="#fffdeb" style="animation-play-state:paused" ></circle></g>
<g transform="translate(972.0734589004383 263.0323399788899) rotate(198.95782191550444) scale(0.3122591698650126)" opacity="0.688139" style="opacity:0.688139;animation-play-state:paused" ><circle cx="0" cy="0" r="5" fill="#fffdeb" style="animation-play-state:paused" ></circle></g>
<g transform="translate(549.2570970384262 478.59892611714525) rotate(95.82131507384179) scale(0.2779493286388759)" opacity="0.688139" style="opacity:0.688139;animation-play-state:paused" ><circle cx="0" cy="0" r="5" fill="#fffdeb" style="animation-play-state:paused" ></circle></g>
<g transform="translate(1016.270742872011 451.8275656174) rotate(63.805847193817954) scale(0.24911809459700712)" opacity="0.688139" style="opacity:0.688139;animation-play-state:paused" ><circle cx="0" cy="0" r="5" fill="#fffdeb" style="animation-play-state:paused" ></circle></g>
<g transform="translate(1243.2434722580645 372.9979923628472) rotate(260.75557570628575) scale(0.2910906097445128)" opacity="0.688139" style="opacity:0.688139;animation-play-state:paused" ><circle cx="0" cy="0" r="5" fill="#fffdeb" style="animation-play-state:paused" ></circle></g>
<g transform="translate(987.3334953869946 225.36761719381656) rotate(33.47695690598206) scale(0.24826893529305927)" opacity="0.688139" style="opacity:0.688139;animation-play-state:paused" ><circle cx="0" cy="0" r="5" fill="#fffdeb" style="animation-play-state:paused" ></circle></g>
<g transform="translate(196.83759183195315 318.02714245847585) rotate(354.0063102336725) scale(0.3484583956873271)" opacity="0.688139" style="opacity:0.688139;animation-play-state:paused" ><circle cx="0" cy="0" r="5" fill="#ffd391" style="animation-play-state:paused" ></circle></g>
<g transform="translate(766.8759499463708 462.30299090224145) rotate(122.18708324894952) scale(0.34776770384951433)" opacity="0.56508" style="opacity:0.56508;animation-play-state:paused" ><circle cx="0" cy="0" r="5" fill="#ffd391" style="animation-play-state:paused" ></circle></g>
<g transform="translate(1217.139722694112 571.8427655574136) rotate(276.6804278006398) scale(0.3532941430592544)" opacity="0.56508" style="opacity:0.56508;animation-play-state:paused" ><circle cx="0" cy="0" r="5" fill="#ffd391" style="animation-play-state:paused" ></circle></g>
<g transform="translate(163.5998947385084 479.3144105627171) rotate(87.10600273402416) scale(0.28076060746893206)" opacity="0.56508" style="opacity:0.56508;animation-play-state:paused" ><circle cx="0" cy="0" r="5" fill="#ffd391" style="animation-play-state:paused" ></circle></g>
<g transform="translate(1221.6055919718237 519.0443678420687) rotate(9.892827317049724) scale(0.287246275666932)" opacity="0.56508" style="opacity:0.56508;animation-play-state:paused" ><circle cx="0" cy="0" r="5" fill="#ffd391" style="animation-play-state:paused" ></circle></g>
<g transform="translate(867.2578679081819 185.69399045062568) rotate(137.0845409924917) scale(0.26973785495746133)" opacity="0.56508" style="opacity:0.56508;animation-play-state:paused" ><circle cx="0" cy="0" r="5" fill="#ffd391" style="animation-play-state:paused" ></circle></g>
<g transform="translate(927.3083394605887 125.33467571695785) rotate(137.92670030358204) scale(0.3316689820602315)" opacity="0.56508" style="opacity:0.56508;animation-play-state:paused" ><circle cx="0" cy="0" r="5" fill="#ffd391" style="animation-play-state:paused" ></circle></g>
<g transform="translate(925.7612549718331 21.687416561999427) rotate(198.94701048029813) scale(0.2713036166282888)" opacity="0.56508" style="opacity:0.56508;animation-play-state:paused" ><circle cx="0" cy="0" r="5" fill="#ffd391" style="animation-play-state:paused" ></circle></g>
<g transform="translate(566.4250161986347 369.6602705217816) rotate(117.07743064497146) scale(0.28245467116471507)" opacity="0.56508" style="opacity:0.56508;animation-play-state:paused" ><circle cx="0" cy="0" r="5" fill="#fffdeb" style="animation-play-state:paused" ></circle></g>
<g transform="translate(878.3549563938404 81.00251380342578) rotate(312.81030516407696) scale(0.35957833224729363)" opacity="0.56508" style="opacity:0.56508;animation-play-state:paused" ><circle cx="0" cy="0" r="5" fill="#fffdeb" style="animation-play-state:paused" ></circle></g>
<g transform="translate(1467.9183796451512 692.4682525203531) rotate(120.65467300553037) scale(0.296890480427861)" opacity="0.56508" style="opacity:0.56508;animation-play-state:paused" ><circle cx="0" cy="0" r="5" fill="#ffd391" style="animation-play-state:paused" ></circle></g>
<g transform="translate(1201.1400723202457 0.5964576368121347) rotate(317.5541865840684) scale(0.2986483037055443)" opacity="0.56508" style="opacity:0.56508;animation-play-state:paused" ><circle cx="0" cy="0" r="5" fill="#fffdeb" style="animation-play-state:paused" ></circle></g>
<g transform="translate(274.00363529034854 405.44736266058277) rotate(114.4515468641544) scale(0.29030257236615264)" opacity="0.56508" style="opacity:0.56508;animation-play-state:paused" ><circle cx="0" cy="0" r="5" fill="#ffd391" style="animation-play-state:paused" ></circle></g>
<g transform="translate(538.3939764333641 20.883904233050604) rotate(229.9700081549837) scale(0.32488402513340503)" opacity="0.56508" style="opacity:0.56508;animation-play-state:paused" ><circle cx="0" cy="0" r="5" fill="#fffdeb" style="animation-play-state:paused" ></circle></g>
<g transform="translate(295.9115895165947 218.41413670256986) rotate(324.49981412435164) scale(0.27818821140008937)" opacity="0.56508" style="opacity:0.56508;animation-play-state:paused" ><circle cx="0" cy="0" r="5" fill="#ffd391" style="animation-play-state:paused" ></circle></g>
<g transform="translate(673.3687898024865 219.2125729558554) rotate(25.845129131154422) scale(0.30370027598173066)" opacity="0.56508" style="opacity:0.56508;animation-play-state:paused" ><circle cx="0" cy="0" r="5" fill="#ffd391" style="animation-play-state:paused" ></circle></g>
<g transform="translate(1355.0925327523926 13.420461340403271) rotate(55.46329493236201) scale(0.3577755350671938)" opacity="0.56508" style="opacity:0.56508;animation-play-state:paused" ><circle cx="0" cy="0" r="5" fill="#ffd391" style="animation-play-state:paused" ></circle></g>
<g transform="translate(1504.6072065114106 637.0130694953564) rotate(245.41955512319993) scale(0.2761038786933775)" opacity="0.502704" style="opacity:0.502704;animation-play-state:paused" ><circle cx="0" cy="0" r="5" fill="#fffdeb" style="animation-play-state:paused" ></circle></g>
<g transform="translate(630.4173039137672 412.63831936675706) rotate(44.78705245829383) scale(0.31540041262487845)" opacity="0.502704" style="opacity:0.502704;animation-play-state:paused" ><circle cx="0" cy="0" r="5" fill="#fffdeb" style="animation-play-state:paused" ></circle></g>
<g transform="translate(41.02231402204444 37.26505753168156) rotate(132.26470357438853) scale(0.2520002361594044)" opacity="0.502704" style="opacity:0.502704;animation-play-state:paused" ><circle cx="0" cy="0" r="5" fill="#fffdeb" style="animation-play-state:paused" ></circle></g>
<g transform="translate(581.7810793132069 237.72272374223326) rotate(124.74233041899471) scale(0.2692861636508151)" opacity="0.502704" style="opacity:0.502704;animation-play-state:paused" ><circle cx="0" cy="0" r="5" fill="#fffdeb" style="animation-play-state:paused" ></circle></g>
<g transform="translate(567.7361147579162 562.9008688369896) rotate(110.1559393710604) scale(0.31569690720893134)" opacity="0.502704" style="opacity:0.502704;animation-play-state:paused" ><circle cx="0" cy="0" r="5" fill="#fffdeb" style="animation-play-state:paused" ></circle></g>
<g transform="translate(991.7839274021371 504.83897269343953) rotate(154.75227973350513) scale(0.26704733854421464)" opacity="0.502704" style="opacity:0.502704;animation-play-state:paused" ><circle cx="0" cy="0" r="5" fill="#ffd391" style="animation-play-state:paused" ></circle></g>
<g transform="translate(152.10883876656794 371.52780631182407) rotate(129.13388013994066) scale(0.3472903899234025)" opacity="0.502704" style="opacity:0.502704;animation-play-state:paused" ><circle cx="0" cy="0" r="5" fill="#ffd391" style="animation-play-state:paused" ></circle></g>
<g transform="translate(449.23447815964545 27.573567609587624) rotate(164.7307994465151) scale(0.30917385616704834)" opacity="0.502704" style="opacity:0.502704;animation-play-state:paused" ><circle cx="0" cy="0" r="5" fill="#fffdeb" style="animation-play-state:paused" ></circle></g>
<g transform="translate(449.2067937775806 466.7373577959591) rotate(229.54631054375477) scale(0.26222016930228637)" opacity="0.502704" style="opacity:0.502704;animation-play-state:paused" ><circle cx="0" cy="0" r="5" fill="#ffd391" style="animation-play-state:paused" ></circle></g>
<g transform="translate(668.4881628102082 402.1918949691998) rotate(292.74137967057374) scale(0.33774093055129917)" opacity="0.502704" style="opacity:0.502704;animation-play-state:paused" ><circle cx="0" cy="0" r="5" fill="#ffd391" style="animation-play-state:paused" ></circle></g>
<g transform="translate(819.7007667325724 574.4866986926394) rotate(43.43173794600246) scale(0.26566474848836)" opacity="0.502704" style="opacity:0.502704;animation-play-state:paused" ><circle cx="0" cy="0" r="5" fill="#fffdeb" style="animation-play-state:paused" ></circle></g>
<g transform="translate(1350.4473971999862 61.94656764490007) rotate(209.5753020781129) scale(0.2622460141291752)" opacity="0.502704" style="opacity:0.502704;animation-play-state:paused" ><circle cx="0" cy="0" r="5" fill="#ffd391" style="animation-play-state:paused" ></circle></g>
<g transform="translate(803.2244340836309 181.0079691647437) rotate(128.00977560461502) scale(0.3517413777064762)" opacity="0.502704" style="opacity:0.502704;animation-play-state:paused" ><circle cx="0" cy="0" r="5" fill="#ffd391" style="animation-play-state:paused" ></circle></g>
<g transform="translate(133.05713631844253 631.4200387558689) rotate(56.84402490259056) scale(0.3143777576399257)" opacity="0.502704" style="opacity:0.502704;animation-play-state:paused" ><circle cx="0" cy="0" r="5" fill="#ffd391" style="animation-play-state:paused" ></circle></g>
<g transform="translate(695.436490943433 491.6441662445834) rotate(267.67779831519414) scale(0.3546873338102288)" opacity="0.502704" style="opacity:0.502704;animation-play-state:paused" ><circle cx="0" cy="0" r="5" fill="#ffd391" style="animation-play-state:paused" ></circle></g>
<g transform="translate(1248.0441163024107 462.17346824564873) rotate(270.29688747107303) scale(0.3494253926013744)" opacity="0.502704" style="opacity:0.502704;animation-play-state:paused" ><circle cx="0" cy="0" r="5" fill="#ffd391" style="animation-play-state:paused" ></circle></g>
<g transform="translate(888.8599069429642 148.63040795736381) rotate(314.1630551153922) scale(0.318935117065104)" opacity="0.593631" style="opacity:0.593631;animation-play-state:paused" ><circle cx="0" cy="0" r="5" fill="#ffd391" style="animation-play-state:paused" ></circle></g>
<g transform="translate(1086.3703964480187 188.3378012778619) rotate(149.5775451409778) scale(0.2523807590909906)" opacity="0.593631" style="opacity:0.593631;animation-play-state:paused" ><circle cx="0" cy="0" r="5" fill="#fffdeb" style="animation-play-state:paused" ></circle></g>
<g transform="translate(56.287994143597814 580.8426457967112) rotate(100.90609641628937) scale(0.31365210810284677)" opacity="0.593631" style="opacity:0.593631;animation-play-state:paused" ><circle cx="0" cy="0" r="5" fill="#fffdeb" style="animation-play-state:paused" ></circle></g>
<g transform="translate(831.0748739239814 216.0604904446622) rotate(215.80545845026543) scale(0.3021951540237219)" opacity="0.593631" style="opacity:0.593631;animation-play-state:paused" ><circle cx="0" cy="0" r="5" fill="#ffd391" style="animation-play-state:paused" ></circle></g>
<g transform="translate(578.9666211442998 281.50125872068435) rotate(168.68543884848836) scale(0.30735795064544397)" opacity="0.593631" style="opacity:0.593631;animation-play-state:paused" ><circle cx="0" cy="0" r="5" fill="#ffd391" style="animation-play-state:paused" ></circle></g>
<g transform="translate(1184.7735808262978 648.2366422023155) rotate(205.19159231398964) scale(0.27899206004904525)" opacity="0.593631" style="opacity:0.593631;animation-play-state:paused" ><circle cx="0" cy="0" r="5" fill="#ffd391" style="animation-play-state:paused" ></circle></g>
<g transform="translate(812.6629822496504 634.8960051193599) rotate(328.604941205205) scale(0.3254396353680576)" opacity="0.593631" style="opacity:0.593631;animation-play-state:paused" ><circle cx="0" cy="0" r="5" fill="#fffdeb" style="animation-play-state:paused" ></circle></g>
<g transform="translate(1134.7241938170032 165.85287495817443) rotate(151.86220109108788) scale(0.26149210517176136)" opacity="0.593631" style="opacity:0.593631;animation-play-state:paused" ><circle cx="0" cy="0" r="5" fill="#ffd391" style="animation-play-state:paused" ></circle></g>
<g transform="translate(408.0308283158639 710.1781493548212) rotate(120.68570173690026) scale(0.30521276196643543)" opacity="0.593631" style="opacity:0.593631;animation-play-state:paused" ><circle cx="0" cy="0" r="5" fill="#ffd391" style="animation-play-state:paused" ></circle></g>
<g transform="translate(496.63428323817703 428.9577933102639) rotate(233.38300848005807) scale(0.35064649199577297)" opacity="0.593631" style="opacity:0.593631;animation-play-state:paused" ><circle cx="0" cy="0" r="5" fill="#ffd391" style="animation-play-state:paused" ></circle></g>
<g transform="translate(1212.3137770668845 588.0820063562336) rotate(233.52547806104803) scale(0.3402842166315359)" opacity="0.593631" style="opacity:0.593631;animation-play-state:paused" ><circle cx="0" cy="0" r="5" fill="#ffd391" style="animation-play-state:paused" ></circle></g>
<g transform="translate(985.4978064530642 699.2760376966207) rotate(114.5572935228978) scale(0.35210262584772417)" opacity="0.593631" style="opacity:0.593631;animation-play-state:paused" ><circle cx="0" cy="0" r="5" fill="#fffdeb" style="animation-play-state:paused" ></circle></g>
<g transform="translate(281.03270743500156 668.8343795789472) rotate(29.75860777907773) scale(0.34159232262340555)" opacity="0.593631" style="opacity:0.593631;animation-play-state:paused" ><circle cx="0" cy="0" r="5" fill="#fffdeb" style="animation-play-state:paused" ></circle></g>
<g transform="translate(1233.9481354357265 64.18044722642739) rotate(326.0742332111811) scale(0.31764970218836575)" opacity="0.593631" style="opacity:0.593631;animation-play-state:paused" ><circle cx="0" cy="0" r="5" fill="#fffdeb" style="animation-play-state:paused" ></circle></g>
<g transform="translate(1387.278174539224 227.82522515460604) rotate(318.55951925296927) scale(0.28027889429225306)" opacity="0.593631" style="opacity:0.593631;animation-play-state:paused" ><circle cx="0" cy="0" r="5" fill="#fffdeb" style="animation-play-state:paused" ></circle></g>
<g transform="translate(603.4251947033372 658.8738447598771) rotate(142.18069812937793) scale(0.26547236778060535)" opacity="0.593631" style="opacity:0.593631;animation-play-state:paused" ><circle cx="0" cy="0" r="5" fill="#ffd391" style="animation-play-state:paused" ></circle></g>
<g transform="translate(1454.1224547947456 717.6196701512979) rotate(221.30558862809116) scale(0.2969474865259254)" opacity="0.721142" style="opacity:0.721142;animation-play-state:paused" ><circle cx="0" cy="0" r="5" fill="#fffdeb" style="animation-play-state:paused" ></circle></g>
<g transform="translate(407.50003601282066 455.6023788926883) rotate(300.207660295217) scale(0.355487428321958)" opacity="0.721142" style="opacity:0.721142;animation-play-state:paused" ><circle cx="0" cy="0" r="5" fill="#fffdeb" style="animation-play-state:paused" ></circle></g>
<g transform="translate(55.01236633348549 505.763592820184) rotate(283.5491960275571) scale(0.2705115371269346)" opacity="0.721142" style="opacity:0.721142;animation-play-state:paused" ><circle cx="0" cy="0" r="5" fill="#fffdeb" style="animation-play-state:paused" ></circle></g>
<g transform="translate(1324.963881732762 385.4756255078703) rotate(76.36402279029429) scale(0.2707827262262386)" opacity="0.721142" style="opacity:0.721142;animation-play-state:paused" ><circle cx="0" cy="0" r="5" fill="#fffdeb" style="animation-play-state:paused" ></circle></g>
<g transform="translate(257.88752258564443 232.65838359875167) rotate(331.2603707941876) scale(0.32210303532918816)" opacity="0.721142" style="opacity:0.721142;animation-play-state:paused" ><circle cx="0" cy="0" r="5" fill="#fffdeb" style="animation-play-state:paused" ></circle></g>
<g transform="translate(1489.6492197844616 506.3289524733224) rotate(108.51080704863544) scale(0.3588550625615914)" opacity="0.721142" style="opacity:0.721142;animation-play-state:paused" ><circle cx="0" cy="0" r="5" fill="#fffdeb" style="animation-play-state:paused" ></circle></g>
<g transform="translate(888.871050425247 587.6377592729679) rotate(144.2831346405875) scale(0.3319850070414517)" opacity="0.721142" style="opacity:0.721142;animation-play-state:paused" ><circle cx="0" cy="0" r="5" fill="#ffd391" style="animation-play-state:paused" ></circle></g>
<g transform="translate(780.2722863714462 364.99017316918525) rotate(344.09387813141666) scale(0.3251986234864394)" opacity="0.721142" style="opacity:0.721142;animation-play-state:paused" ><circle cx="0" cy="0" r="5" fill="#ffd391" style="animation-play-state:paused" ></circle></g>
<g transform="translate(146.37063390353956 323.37652472778035) rotate(53.71219266246614) scale(0.3310785929990056)" opacity="0.721142" style="opacity:0.721142;animation-play-state:paused" ><circle cx="0" cy="0" r="5" fill="#ffd391" style="animation-play-state:paused" ></circle></g>
<g transform="translate(896.2747503259241 574.7539425184701) rotate(140.729334113948) scale(0.34572671380381953)" opacity="0.721142" style="opacity:0.721142;animation-play-state:paused" ><circle cx="0" cy="0" r="5" fill="#fffdeb" style="animation-play-state:paused" ></circle></g>
<g transform="translate(1513.5032980704957 456.7668180221388) rotate(240.2715375683436) scale(0.34826959334321167)" opacity="0.721142" style="opacity:0.721142;animation-play-state:paused" ><circle cx="0" cy="0" r="5" fill="#fffdeb" style="animation-play-state:paused" ></circle></g>
<g transform="translate(659.6805998828515 701.63571319724) rotate(340.62174940242045) scale(0.3116578171711956)" opacity="0.721142" style="opacity:0.721142;animation-play-state:paused" ><circle cx="0" cy="0" r="5" fill="#fffdeb" style="animation-play-state:paused" ></circle></g>
<g transform="translate(978.2822821952882 646.26592214512) rotate(142.68884130821317) scale(0.3566886395963878)" opacity="0.721142" style="opacity:0.721142;animation-play-state:paused" ><circle cx="0" cy="0" r="5" fill="#fffdeb" style="animation-play-state:paused" ></circle></g>
<g transform="translate(381.2474051822029 668.6684035148397) rotate(147.29864910788103) scale(0.3389054966447372)" opacity="0.721142" style="opacity:0.721142;animation-play-state:paused" ><circle cx="0" cy="0" r="5" fill="#ffd391" style="animation-play-state:paused" ></circle></g>
<g transform="translate(882.5227604224127 344.49681463699363) rotate(337.4047715301473) scale(0.29931840013299255)" opacity="0.721142" style="opacity:0.721142;animation-play-state:paused" ><circle cx="0" cy="0" r="5" fill="#ffd391" style="animation-play-state:paused" ></circle></g>
<g transform="translate(943.4722148775421 555.9820738712605) rotate(143.63866247768215) scale(0.3010385853659678)" opacity="0.721142" style="opacity:0.721142;animation-play-state:paused" ><circle cx="0" cy="0" r="5" fill="#fffdeb" style="animation-play-state:paused" ></circle></g>
<g transform="translate(410.2488197442475 205.40483267637129) rotate(10.34172635182141) scale(0.2722523637026682)" opacity="0.852773" style="opacity:0.852773;animation-play-state:paused" ><circle cx="0" cy="0" r="5" fill="#ffd391" style="animation-play-state:paused" ></circle></g>
<g transform="translate(737.4357131290257 32.334500634911976) rotate(114.35811108920342) scale(0.31922799248357836)" opacity="0.852773" style="opacity:0.852773;animation-play-state:paused" ><circle cx="0" cy="0" r="5" fill="#ffd391" style="animation-play-state:paused" ></circle></g>
<g transform="translate(1005.2630986241317 26.68309213836453) rotate(68.52274084412323) scale(0.2718541972177706)" opacity="0.852773" style="opacity:0.852773;animation-play-state:paused" ><circle cx="0" cy="0" r="5" fill="#ffd391" style="animation-play-state:paused" ></circle></g>
<g transform="translate(788.16624817348 129.90939908199772) rotate(34.41810587272525) scale(0.3477990875877522)" opacity="0.852773" style="opacity:0.852773;animation-play-state:paused" ><circle cx="0" cy="0" r="5" fill="#fffdeb" style="animation-play-state:paused" ></circle></g>
<g transform="translate(104.93575783614176 117.95480966800369) rotate(136.08913837512742) scale(0.3474863420159389)" opacity="0.852773" style="opacity:0.852773;animation-play-state:paused" ><circle cx="0" cy="0" r="5" fill="#fffdeb" style="animation-play-state:paused" ></circle></g>
<g transform="translate(838.7566867706078 66.3559269971286) rotate(154.70428607337158) scale(0.2566277200993075)" opacity="0.852773" style="opacity:0.852773;animation-play-state:paused" ><circle cx="0" cy="0" r="5" fill="#ffd391" style="animation-play-state:paused" ></circle></g>
<g transform="translate(455.80293890268393 190.52225095054223) rotate(237.86871758364626) scale(0.3514854446615168)" opacity="0.852773" style="opacity:0.852773;animation-play-state:paused" ><circle cx="0" cy="0" r="5" fill="#ffd391" style="animation-play-state:paused" ></circle></g>
<g transform="translate(1055.9304969282853 216.21295275814106) rotate(297.0628256313405) scale(0.347710675083632)" opacity="0.852773" style="opacity:0.852773;animation-play-state:paused" ><circle cx="0" cy="0" r="5" fill="#fffdeb" style="animation-play-state:paused" ></circle></g>
<g transform="translate(1464.0687349465234 437.2741728275702) rotate(205.498243331527) scale(0.3315411235876774)" opacity="0.852773" style="opacity:0.852773;animation-play-state:paused" ><circle cx="0" cy="0" r="5" fill="#fffdeb" style="animation-play-state:paused" ></circle></g>
<g transform="translate(714.0975331024367 495.5262408340059) rotate(338.5934154163647) scale(0.24932155983956478)" opacity="0.852773" style="opacity:0.852773;animation-play-state:paused" ><circle cx="0" cy="0" r="5" fill="#fffdeb" style="animation-play-state:paused" ></circle></g>
<g transform="translate(1501.79109746001 375.8305218825193) rotate(116.82697046715084) scale(0.3574545140026446)" opacity="0.852773" style="opacity:0.852773;animation-play-state:paused" ><circle cx="0" cy="0" r="5" fill="#fffdeb" style="animation-play-state:paused" ></circle></g>
<g transform="translate(357.2311362744502 9.536006068040239) rotate(169.79152694379204) scale(0.26031621906131935)" opacity="0.852773" style="opacity:0.852773;animation-play-state:paused" ><circle cx="0" cy="0" r="5" fill="#ffd391" style="animation-play-state:paused" ></circle></g>
<g transform="translate(1406.9384412349668 448.4066074538452) rotate(271.16699052618634) scale(0.3544380069003367)" opacity="0.852773" style="opacity:0.852773;animation-play-state:paused" ><circle cx="0" cy="0" r="5" fill="#ffd391" style="animation-play-state:paused" ></circle></g>
<g transform="translate(410.15300870112696 295.6395081259091) rotate(326.02997906909945) scale(0.3554400441473442)" opacity="0.852773" style="opacity:0.852773;animation-play-state:paused" ><circle cx="0" cy="0" r="5" fill="#fffdeb" style="animation-play-state:paused" ></circle></g>
<g transform="translate(2.5448479629217218 332.45064377046896) rotate(82.26863363464858) scale(0.32305170281843976)" opacity="0.852773" style="opacity:0.852773;animation-play-state:paused" ><circle cx="0" cy="0" r="5" fill="#fffdeb" style="animation-play-state:paused" ></circle></g>
<g transform="translate(755.1520874561442 541.8426905741544) rotate(175.83050932120904) scale(0.31916610870016265)" opacity="0.852773" style="opacity:0.852773;animation-play-state:paused" ><circle cx="0" cy="0" r="5" fill="#ffd391" style="animation-play-state:paused" ></circle></g>
<g transform="translate(1157.2849087374113 559.6091871046033) rotate(313.2158291185499) scale(0.34612074604017457)" opacity="0.966998" style="opacity:0.966998;animation-play-state:paused" ><circle cx="0" cy="0" r="5" fill="#fffdeb" style="animation-play-state:paused" ></circle></g>
<g transform="translate(1183.604977974235 495.1387638759415) rotate(171.0318344476192) scale(0.2609061679772682)" opacity="0.966998" style="opacity:0.966998;animation-play-state:paused" ><circle cx="0" cy="0" r="5" fill="#ffd391" style="animation-play-state:paused" ></circle></g>
<g transform="translate(1430.0368304742333 76.92589276643845) rotate(311.6900232242654) scale(0.2660514950972078)" opacity="0.966998" style="opacity:0.966998;animation-play-state:paused" ><circle cx="0" cy="0" r="5" fill="#ffd391" style="animation-play-state:paused" ></circle></g>
<g transform="translate(1026.7572696695293 215.5356005354229) rotate(187.2239185685889) scale(0.30868292538230824)" opacity="0.966998" style="opacity:0.966998;animation-play-state:paused" ><circle cx="0" cy="0" r="5" fill="#fffdeb" style="animation-play-state:paused" ></circle></g>
<g transform="translate(722.1233032718471 667.1391761895165) rotate(95.75750648539334) scale(0.3133120845187965)" opacity="0.966998" style="opacity:0.966998;animation-play-state:paused" ><circle cx="0" cy="0" r="5" fill="#fffdeb" style="animation-play-state:paused" ></circle></g>
<g transform="translate(774.2441432731448 202.5701443302944) rotate(222.3126681553753) scale(0.2412064591582453)" opacity="0.966998" style="opacity:0.966998;animation-play-state:paused" ><circle cx="0" cy="0" r="5" fill="#fffdeb" style="animation-play-state:paused" ></circle></g>
<g transform="translate(218.8797229896336 546.6131928338517) rotate(186.05998293834418) scale(0.28921350770459975)" opacity="0.966998" style="opacity:0.966998;animation-play-state:paused" ><circle cx="0" cy="0" r="5" fill="#ffd391" style="animation-play-state:paused" ></circle></g>
<g transform="translate(387.55101356292926 366.2222903569324) rotate(352.4851390078097) scale(0.2963243283370271)" opacity="0.966998" style="opacity:0.966998;animation-play-state:paused" ><circle cx="0" cy="0" r="5" fill="#ffd391" style="animation-play-state:paused" ></circle></g>
<g transform="translate(145.60366566832448 78.83568536271083) rotate(33.97553760596522) scale(0.28086829984290945)" opacity="0.966998" style="opacity:0.966998;animation-play-state:paused" ><circle cx="0" cy="0" r="5" fill="#fffdeb" style="animation-play-state:paused" ></circle></g>
<g transform="translate(1013.9957843147594 411.8145378121313) rotate(330.6130369721069) scale(0.3429085565527031)" opacity="0.966998" style="opacity:0.966998;animation-play-state:paused" ><circle cx="0" cy="0" r="5" fill="#fffdeb" style="animation-play-state:paused" ></circle></g>
<g transform="translate(362.8316959328518 680.2861390091197) rotate(177.2377595610933) scale(0.29949489540526825)" opacity="0.966998" style="opacity:0.966998;animation-play-state:paused" ><circle cx="0" cy="0" r="5" fill="#fffdeb" style="animation-play-state:paused" ></circle></g>
<g transform="translate(13.658225929976595 380.5688947684638) rotate(143.2173380824942) scale(0.25977941194182824)" opacity="0.966998" style="opacity:0.966998;animation-play-state:paused" ><circle cx="0" cy="0" r="5" fill="#ffd391" style="animation-play-state:paused" ></circle></g>
<g transform="translate(137.43702567078896 203.0417665669362) rotate(212.17803033299845) scale(0.26452624126728363)" opacity="0.966998" style="opacity:0.966998;animation-play-state:paused" ><circle cx="0" cy="0" r="5" fill="#ffd391" style="animation-play-state:paused" ></circle></g>
<g transform="translate(668.9768412034509 582.0128958849463) rotate(344.68558234789674) scale(0.26409632519169424)" opacity="0.966998" style="opacity:0.966998;animation-play-state:paused" ><circle cx="0" cy="0" r="5" fill="#ffd391" style="animation-play-state:paused" ></circle></g>
<g transform="translate(1487.4420144161031 226.9264783945071) rotate(204.0342729920822) scale(0.28501428292567144)" opacity="0.966998" style="opacity:0.966998;animation-play-state:paused" ><circle cx="0" cy="0" r="5" fill="#ffd391" style="animation-play-state:paused" ></circle></g>
<g transform="translate(803.9775997344016 203.1665396080323) rotate(211.98192335732887) scale(0.3079708762873259)" opacity="0.966998" style="opacity:0.966998;animation-play-state:paused" ><circle cx="0" cy="0" r="5" fill="#ffd391" style="animation-play-state:paused" ></circle></g>
<g transform="translate(626.7252865731209 56.11152428709372) rotate(334.6532673304107) scale(0.337180967490969)" opacity="0.977345" style="opacity:0.977345;animation-play-state:paused" ><circle cx="0" cy="0" r="5" fill="#ffd391" style="animation-play-state:paused" ></circle></g>
<g transform="translate(584.0858793998078 78.34449230609954) rotate(195.74292975239487) scale(0.3325551854740075)" opacity="0.977345" style="opacity:0.977345;animation-play-state:paused" ><circle cx="0" cy="0" r="5" fill="#fffdeb" style="animation-play-state:paused" ></circle></g>
<g transform="translate(1482.1085860526466 715.0008216492919) rotate(21.465476602455556) scale(0.31798690988686323)" opacity="0.977345" style="opacity:0.977345;animation-play-state:paused" ><circle cx="0" cy="0" r="5" fill="#fffdeb" style="animation-play-state:paused" ></circle></g>
<g transform="translate(1145.594660253466 30.13315666088299) rotate(36.22141146874116) scale(0.2688547964903805)" opacity="0.977345" style="opacity:0.977345;animation-play-state:paused" ><circle cx="0" cy="0" r="5" fill="#ffd391" style="animation-play-state:paused" ></circle></g>
<g transform="translate(364.0656194525544 40.73973308358159) rotate(356.37216603232025) scale(0.3549515507980799)" opacity="0.977345" style="opacity:0.977345;animation-play-state:paused" ><circle cx="0" cy="0" r="5" fill="#fffdeb" style="animation-play-state:paused" ></circle></g>
<g transform="translate(806.6300326215526 104.31788191681034) rotate(81.3407692017211) scale(0.27605784375676845)" opacity="0.977345" style="opacity:0.977345;animation-play-state:paused" ><circle cx="0" cy="0" r="5" fill="#fffdeb" style="animation-play-state:paused" ></circle></g>
<g transform="translate(729.3743484777467 482.08529673300734) rotate(300.74719778801114) scale(0.33809087027671103)" opacity="0.977345" style="opacity:0.977345;animation-play-state:paused" ><circle cx="0" cy="0" r="5" fill="#fffdeb" style="animation-play-state:paused" ></circle></g>
<g transform="translate(1275.706240853237 515.1426316415204) rotate(313.88809873965357) scale(0.30646233463201145)" opacity="0.977345" style="opacity:0.977345;animation-play-state:paused" ><circle cx="0" cy="0" r="5" fill="#fffdeb" style="animation-play-state:paused" ></circle></g>
<g transform="translate(1508.256805012092 387.93145047327346) rotate(133.44542777068227) scale(0.3038093271580196)" opacity="0.977345" style="opacity:0.977345;animation-play-state:paused" ><circle cx="0" cy="0" r="5" fill="#ffd391" style="animation-play-state:paused" ></circle></g>
<g transform="translate(344.94791133363634 605.9860306715467) rotate(48.846135411858185) scale(0.2534986911619891)" opacity="0.977345" style="opacity:0.977345;animation-play-state:paused" ><circle cx="0" cy="0" r="5" fill="#ffd391" style="animation-play-state:paused" ></circle></g>
<g transform="translate(712.2689686789898 569.463538915638) rotate(216.47141709138387) scale(0.33904837278484645)" opacity="0.977345" style="opacity:0.977345;animation-play-state:paused" ><circle cx="0" cy="0" r="5" fill="#ffd391" style="animation-play-state:paused" ></circle></g>
<g transform="translate(32.82018532101097 607.6573939253561) rotate(259.7507845894078) scale(0.29765961331092783)" opacity="0.977345" style="opacity:0.977345;animation-play-state:paused" ><circle cx="0" cy="0" r="5" fill="#fffdeb" style="animation-play-state:paused" ></circle></g>
<g transform="translate(263.4528139144317 344.78172428280703) rotate(228.4836738650479) scale(0.35557983951456373)" opacity="0.977345" style="opacity:0.977345;animation-play-state:paused" ><circle cx="0" cy="0" r="5" fill="#fffdeb" style="animation-play-state:paused" ></circle></g>
<g transform="translate(1412.396534468118 315.68711607468407) rotate(85.65759381550225) scale(0.2549308134301899)" opacity="0.977345" style="opacity:0.977345;animation-play-state:paused" ><circle cx="0" cy="0" r="5" fill="#ffd391" style="animation-play-state:paused" ></circle></g>
<g transform="translate(647.3194066006579 670.185793216539) rotate(201.87435369364803) scale(0.24674850549417982)" opacity="0.977345" style="opacity:0.977345;animation-play-state:paused" ><circle cx="0" cy="0" r="5" fill="#ffd391" style="animation-play-state:paused" ></circle></g>
<g transform="translate(1286.221180463546 672.2621467341766) rotate(172.34907499601314) scale(0.25009777373669734)" opacity="0.977345" style="opacity:0.977345;animation-play-state:paused" ><circle cx="0" cy="0" r="5" fill="#ffd391" style="animation-play-state:paused" ></circle></g>
<g transform="translate(709.499394848785 543.2554016111304) rotate(211.7095046259524) scale(0.28705570294257804)" opacity="0.867767" style="opacity:0.867767;animation-play-state:paused" ><circle cx="0" cy="0" r="5" fill="#fffdeb" style="animation-play-state:paused" ></circle></g>
<g transform="translate(352.03067932185667 217.22955414204532) rotate(183.61785863127676) scale(0.3219808431453476)" opacity="0.867767" style="opacity:0.867767;animation-play-state:paused" ><circle cx="0" cy="0" r="5" fill="#fffdeb" style="animation-play-state:paused" ></circle></g>
<g transform="translate(895.784706415873 465.95120333928537) rotate(337.9052948615371) scale(0.34530732346806065)" opacity="0.867767" style="opacity:0.867767;animation-play-state:paused" ><circle cx="0" cy="0" r="5" fill="#fffdeb" style="animation-play-state:paused" ></circle></g>
<g transform="translate(447.644047592362 436.9853929277313) rotate(66.1777532660023) scale(0.3594969628106494)" opacity="0.867767" style="opacity:0.867767;animation-play-state:paused" ><circle cx="0" cy="0" r="5" fill="#ffd391" style="animation-play-state:paused" ></circle></g>
<g transform="translate(482.24696141822 319.36010708268947) rotate(257.20145437846435) scale(0.29680208161817845)" opacity="0.867767" style="opacity:0.867767;animation-play-state:paused" ><circle cx="0" cy="0" r="5" fill="#ffd391" style="animation-play-state:paused" ></circle></g>
<g transform="translate(1154.8396780062205 521.1531709276354) rotate(154.27775689675758) scale(0.2871449175617218)" opacity="0.867767" style="opacity:0.867767;animation-play-state:paused" ><circle cx="0" cy="0" r="5" fill="#ffd391" style="animation-play-state:paused" ></circle></g>
<g transform="translate(360.1431956046921 448.2845532870906) rotate(214.40955750764198) scale(0.3168443683451011)" opacity="0.867767" style="opacity:0.867767;animation-play-state:paused" ><circle cx="0" cy="0" r="5" fill="#fffdeb" style="animation-play-state:paused" ></circle></g>
<g transform="translate(772.5933241042201 67.28985034421791) rotate(353.1800574659958) scale(0.2518449441770381)" opacity="0.867767" style="opacity:0.867767;animation-play-state:paused" ><circle cx="0" cy="0" r="5" fill="#ffd391" style="animation-play-state:paused" ></circle></g></g></svg>